G04 #@! TF.FileFunction,Paste,Top*
%FSLAX46Y46*%
G04 Gerber Fmt 4.6, Leading zero omitted, Abs format (unit mm)*
G04 Created by KiCad (PCBNEW 4.0.7) date 12/13/17 21:39:52*
%MOMM*%
%LPD*%
G01*
G04 APERTURE LIST*
%ADD10C,0.100000*%
%ADD11R,1.550000X0.600000*%
%ADD12R,1.980000X3.960000*%
%ADD13O,1.980000X3.960000*%
%ADD14R,0.750000X0.800000*%
%ADD15R,1.450000X0.450000*%
%ADD16R,0.800000X0.750000*%
%ADD17R,0.900000X0.500000*%
%ADD18R,1.800000X2.500000*%
%ADD19R,0.500000X0.900000*%
%ADD20R,0.800000X0.900000*%
%ADD21R,0.900000X0.800000*%
%ADD22R,0.700000X0.450000*%
G04 APERTURE END LIST*
D10*
D11*
X44290000Y-36957000D03*
X44290000Y-38227000D03*
X44290000Y-39497000D03*
X44290000Y-40767000D03*
X49690000Y-40767000D03*
X49690000Y-39497000D03*
X49690000Y-38227000D03*
X49690000Y-36957000D03*
D12*
X41900000Y-29560000D03*
D13*
X46900000Y-29560000D03*
X51900000Y-29560000D03*
D14*
X51562000Y-37580000D03*
X51562000Y-36080000D03*
D15*
X51550000Y-47110000D03*
X51550000Y-46460000D03*
X51550000Y-45810000D03*
X51550000Y-45160000D03*
X51550000Y-44510000D03*
X51550000Y-43860000D03*
X51550000Y-43210000D03*
X45650000Y-43210000D03*
X45650000Y-43860000D03*
X45650000Y-44510000D03*
X45650000Y-45160000D03*
X45650000Y-45810000D03*
X45650000Y-46460000D03*
X45650000Y-47110000D03*
D14*
X43800000Y-45810000D03*
X43800000Y-47310000D03*
D16*
X53860000Y-47244000D03*
X55360000Y-47244000D03*
X53850000Y-48768000D03*
X55350000Y-48768000D03*
D17*
X55600000Y-31560000D03*
X55600000Y-33060000D03*
X41600000Y-33660000D03*
X41600000Y-35160000D03*
D14*
X52850000Y-32610000D03*
X52850000Y-34110000D03*
D18*
X49450000Y-32760000D03*
X49450000Y-28760000D03*
D19*
X47600000Y-34260000D03*
X46100000Y-34260000D03*
D20*
X54000000Y-29960000D03*
X55900000Y-29960000D03*
X54950000Y-27960000D03*
D21*
X43900000Y-31710000D03*
X43900000Y-33610000D03*
X45900000Y-32660000D03*
D22*
X53480000Y-35372000D03*
X53480000Y-36322000D03*
X53480000Y-37272000D03*
X55880000Y-35372000D03*
X55880000Y-36322000D03*
X55880000Y-37272000D03*
M02*
