G04 #@! TF.FileFunction,Soldermask,Top*
%FSLAX46Y46*%
G04 Gerber Fmt 4.6, Leading zero omitted, Abs format (unit mm)*
G04 Created by KiCad (PCBNEW 4.0.4-stable) date 10/18/17 21:30:34*
%MOMM*%
%LPD*%
G01*
G04 APERTURE LIST*
%ADD10C,0.100000*%
%ADD11R,1.150000X1.200000*%
%ADD12R,1.850000X0.850000*%
%ADD13R,2.100000X2.100000*%
%ADD14O,2.100000X2.100000*%
%ADD15R,2.380000X4.360000*%
%ADD16O,2.380000X4.360000*%
%ADD17R,1.200000X1.150000*%
%ADD18R,1.670000X1.370000*%
%ADD19R,1.300000X0.900000*%
%ADD20R,2.200000X2.900000*%
%ADD21R,0.900000X1.300000*%
%ADD22R,1.200000X1.300000*%
%ADD23R,1.300000X1.200000*%
%ADD24C,2.540000*%
%ADD25C,1.901140*%
%ADD26O,1.800000X4.200000*%
%ADD27C,1.700000*%
%ADD28R,1.950000X1.000000*%
G04 APERTURE END LIST*
D10*
D11*
X53500000Y-37360000D03*
X53500000Y-35860000D03*
D12*
X51675000Y-47110000D03*
X51675000Y-46460000D03*
X51675000Y-45810000D03*
X51675000Y-45160000D03*
X51675000Y-44510000D03*
X51675000Y-43860000D03*
X51675000Y-43210000D03*
X45775000Y-43210000D03*
X45775000Y-43860000D03*
X45775000Y-44510000D03*
X45775000Y-45160000D03*
X45775000Y-45810000D03*
X45775000Y-46460000D03*
X45775000Y-47110000D03*
D13*
X41500000Y-47640000D03*
D14*
X41500000Y-45100000D03*
X41500000Y-42560000D03*
X41500000Y-40020000D03*
X41500000Y-37480000D03*
D15*
X41900000Y-29560000D03*
D16*
X46900000Y-29560000D03*
X51900000Y-29560000D03*
D11*
X43800000Y-45810000D03*
X43800000Y-47310000D03*
D17*
X53850000Y-46610000D03*
X55350000Y-46610000D03*
X53860000Y-48190000D03*
X55360000Y-48190000D03*
D18*
X55350000Y-34670000D03*
X55350000Y-35950000D03*
D19*
X55600000Y-31560000D03*
X55600000Y-33060000D03*
X41600000Y-33660000D03*
X41600000Y-35160000D03*
D11*
X52850000Y-32610000D03*
X52850000Y-34110000D03*
D20*
X49450000Y-32760000D03*
X49450000Y-28760000D03*
D21*
X47600000Y-34260000D03*
X46100000Y-34260000D03*
D22*
X54000000Y-29960000D03*
X55900000Y-29960000D03*
X54950000Y-27960000D03*
D23*
X43900000Y-31710000D03*
X43900000Y-33610000D03*
X45900000Y-32660000D03*
D24*
X47850000Y-52310000D03*
D25*
X44351140Y-49457880D03*
X46891140Y-49457880D03*
X48923140Y-49457880D03*
X51463140Y-49457880D03*
D26*
X42066000Y-51746000D03*
X53750000Y-51746000D03*
D27*
X50164000Y-51510000D03*
X45564000Y-51510000D03*
D28*
X45200000Y-36910000D03*
X45200000Y-38180000D03*
X45200000Y-39450000D03*
X45200000Y-40720000D03*
X50600000Y-40720000D03*
X50600000Y-39450000D03*
X50600000Y-38180000D03*
X50600000Y-36910000D03*
D13*
X54550000Y-44590000D03*
D14*
X54550000Y-42050000D03*
X54550000Y-39510000D03*
M02*
