G04 #@! TF.FileFunction,Soldermask,Top*
%FSLAX46Y46*%
G04 Gerber Fmt 4.6, Leading zero omitted, Abs format (unit mm)*
G04 Created by KiCad (PCBNEW 4.0.7) date 12/13/17 21:39:52*
%MOMM*%
%LPD*%
G01*
G04 APERTURE LIST*
%ADD10C,0.100000*%
%ADD11R,2.100000X2.100000*%
%ADD12O,2.100000X2.100000*%
%ADD13R,1.950000X1.000000*%
%ADD14R,2.380000X4.360000*%
%ADD15O,2.380000X4.360000*%
%ADD16R,1.150000X1.200000*%
%ADD17R,1.850000X0.850000*%
%ADD18R,1.200000X1.150000*%
%ADD19R,1.300000X0.900000*%
%ADD20R,2.200000X2.900000*%
%ADD21R,0.900000X1.300000*%
%ADD22R,1.200000X1.300000*%
%ADD23R,1.300000X1.200000*%
%ADD24C,1.500000*%
%ADD25C,1.901140*%
%ADD26O,1.800000X4.200000*%
%ADD27R,1.100000X0.850000*%
G04 APERTURE END LIST*
D10*
D11*
X54250000Y-44300000D03*
D12*
X54250000Y-41760000D03*
X54250000Y-39220000D03*
D13*
X44290000Y-36957000D03*
X44290000Y-38227000D03*
X44290000Y-39497000D03*
X44290000Y-40767000D03*
X49690000Y-40767000D03*
X49690000Y-39497000D03*
X49690000Y-38227000D03*
X49690000Y-36957000D03*
D14*
X41900000Y-29560000D03*
D15*
X46900000Y-29560000D03*
X51900000Y-29560000D03*
D16*
X51562000Y-37580000D03*
X51562000Y-36080000D03*
D17*
X51550000Y-47110000D03*
X51550000Y-46460000D03*
X51550000Y-45810000D03*
X51550000Y-45160000D03*
X51550000Y-44510000D03*
X51550000Y-43860000D03*
X51550000Y-43210000D03*
X45650000Y-43210000D03*
X45650000Y-43860000D03*
X45650000Y-44510000D03*
X45650000Y-45160000D03*
X45650000Y-45810000D03*
X45650000Y-46460000D03*
X45650000Y-47110000D03*
D11*
X41910000Y-47640000D03*
D12*
X41910000Y-45100000D03*
X41910000Y-42560000D03*
X41910000Y-40020000D03*
X41910000Y-37480000D03*
D16*
X43800000Y-45810000D03*
X43800000Y-47310000D03*
D18*
X53860000Y-47244000D03*
X55360000Y-47244000D03*
X53850000Y-48768000D03*
X55350000Y-48768000D03*
D19*
X55600000Y-31560000D03*
X55600000Y-33060000D03*
X41600000Y-33660000D03*
X41600000Y-35160000D03*
D16*
X52850000Y-32610000D03*
X52850000Y-34110000D03*
D20*
X49450000Y-32760000D03*
X49450000Y-28760000D03*
D21*
X47600000Y-34260000D03*
X46100000Y-34260000D03*
D22*
X54000000Y-29960000D03*
X55900000Y-29960000D03*
X54950000Y-27960000D03*
D23*
X43900000Y-31710000D03*
X43900000Y-33610000D03*
X45900000Y-32660000D03*
D24*
X47850000Y-52578000D03*
D25*
X44351140Y-49457880D03*
X46891140Y-49457880D03*
X48923140Y-49457880D03*
X51463140Y-49457880D03*
D26*
X42066000Y-51746000D03*
X53750000Y-51746000D03*
D27*
X53480000Y-35372000D03*
X53480000Y-36322000D03*
X53480000Y-37272000D03*
X55880000Y-35372000D03*
X55880000Y-36322000D03*
X55880000Y-37272000D03*
M02*
