G04 #@! TF.FileFunction,Copper,L1,Top,Signal*
%FSLAX46Y46*%
G04 Gerber Fmt 4.6, Leading zero omitted, Abs format (unit mm)*
G04 Created by KiCad (PCBNEW 4.0.7) date 12/13/17 21:39:52*
%MOMM*%
%LPD*%
G01*
G04 APERTURE LIST*
%ADD10C,0.100000*%
%ADD11R,1.700000X1.700000*%
%ADD12O,1.700000X1.700000*%
%ADD13R,1.550000X0.600000*%
%ADD14R,1.980000X3.960000*%
%ADD15O,1.980000X3.960000*%
%ADD16R,0.750000X0.800000*%
%ADD17R,1.450000X0.450000*%
%ADD18R,0.800000X0.750000*%
%ADD19R,0.900000X0.500000*%
%ADD20R,1.800000X2.500000*%
%ADD21R,0.500000X0.900000*%
%ADD22R,0.800000X0.900000*%
%ADD23R,0.900000X0.800000*%
%ADD24C,0.500000*%
%ADD25C,1.501140*%
%ADD26O,1.400000X3.800000*%
%ADD27R,0.700000X0.450000*%
%ADD28C,0.250000*%
%ADD29C,0.254000*%
G04 APERTURE END LIST*
D10*
D11*
X54250000Y-44300000D03*
D12*
X54250000Y-41760000D03*
X54250000Y-39220000D03*
D13*
X44290000Y-36957000D03*
X44290000Y-38227000D03*
X44290000Y-39497000D03*
X44290000Y-40767000D03*
X49690000Y-40767000D03*
X49690000Y-39497000D03*
X49690000Y-38227000D03*
X49690000Y-36957000D03*
D14*
X41900000Y-29560000D03*
D15*
X46900000Y-29560000D03*
X51900000Y-29560000D03*
D16*
X51562000Y-37580000D03*
X51562000Y-36080000D03*
D17*
X51550000Y-47110000D03*
X51550000Y-46460000D03*
X51550000Y-45810000D03*
X51550000Y-45160000D03*
X51550000Y-44510000D03*
X51550000Y-43860000D03*
X51550000Y-43210000D03*
X45650000Y-43210000D03*
X45650000Y-43860000D03*
X45650000Y-44510000D03*
X45650000Y-45160000D03*
X45650000Y-45810000D03*
X45650000Y-46460000D03*
X45650000Y-47110000D03*
D11*
X41910000Y-47640000D03*
D12*
X41910000Y-45100000D03*
X41910000Y-42560000D03*
X41910000Y-40020000D03*
X41910000Y-37480000D03*
D16*
X43800000Y-45810000D03*
X43800000Y-47310000D03*
D18*
X53860000Y-47244000D03*
X55360000Y-47244000D03*
X53850000Y-48768000D03*
X55350000Y-48768000D03*
D19*
X55600000Y-31560000D03*
X55600000Y-33060000D03*
X41600000Y-33660000D03*
X41600000Y-35160000D03*
D16*
X52850000Y-32610000D03*
X52850000Y-34110000D03*
D20*
X49450000Y-32760000D03*
X49450000Y-28760000D03*
D21*
X47600000Y-34260000D03*
X46100000Y-34260000D03*
D22*
X54000000Y-29960000D03*
X55900000Y-29960000D03*
X54950000Y-27960000D03*
D23*
X43900000Y-31710000D03*
X43900000Y-33610000D03*
X45900000Y-32660000D03*
D24*
X47850000Y-52578000D03*
D25*
X44351140Y-49457880D03*
X46891140Y-49457880D03*
X48923140Y-49457880D03*
X51463140Y-49457880D03*
D26*
X42066000Y-51746000D03*
X53750000Y-51746000D03*
D27*
X53480000Y-35372000D03*
X53480000Y-36322000D03*
X53480000Y-37272000D03*
X55880000Y-35372000D03*
X55880000Y-36322000D03*
X55880000Y-37272000D03*
D28*
X53480000Y-36322000D02*
X54719998Y-36322000D01*
X54719998Y-36322000D02*
X55669998Y-37272000D01*
X55669998Y-37272000D02*
X55880000Y-37272000D01*
X40640000Y-49784000D02*
X41389451Y-50533451D01*
X40132000Y-42672000D02*
X40132000Y-49276000D01*
X40132000Y-49276000D02*
X40640000Y-49784000D01*
X40132000Y-41402000D02*
X40132000Y-41552587D01*
X40132000Y-33206587D02*
X40132000Y-41402000D01*
X40132000Y-41656000D02*
X40132000Y-42672000D01*
X40132000Y-41402000D02*
X40132000Y-42672000D01*
X44963612Y-32766000D02*
X42627413Y-32766000D01*
X42627413Y-32766000D02*
X42496401Y-32634988D01*
X42496401Y-32634988D02*
X40703599Y-32634988D01*
X40703599Y-32634988D02*
X40132000Y-33206587D01*
X41389451Y-50533451D02*
X45533875Y-50533451D01*
X45533875Y-50533451D02*
X45546424Y-50546000D01*
X45426711Y-50426287D02*
X45546424Y-50546000D01*
X45546424Y-50546000D02*
X46054424Y-51054000D01*
X44963612Y-34973612D02*
X44963612Y-32766000D01*
X44963612Y-32766000D02*
X44963612Y-28646684D01*
X51463140Y-49457880D02*
X52661880Y-49457880D01*
X52661880Y-49457880D02*
X52672001Y-49468001D01*
X52672001Y-49468001D02*
X54624999Y-49468001D01*
X54624999Y-49468001D02*
X55325000Y-48768000D01*
X55325000Y-48768000D02*
X55350000Y-48768000D01*
X53086000Y-36322000D02*
X53211000Y-36322000D01*
X53086000Y-36322000D02*
X52820000Y-36322000D01*
X52820000Y-36322000D02*
X51562000Y-37580000D01*
X51562000Y-37580000D02*
X51562000Y-38230000D01*
X51562000Y-38230000D02*
X52376410Y-39044410D01*
X52376410Y-39044410D02*
X52376410Y-39220000D01*
X49690000Y-40767000D02*
X50715000Y-40767000D01*
X50715000Y-40767000D02*
X51581990Y-39900010D01*
X51581990Y-39900010D02*
X51696401Y-39900009D01*
X51696401Y-39900009D02*
X52376410Y-39220000D01*
X52376410Y-39220000D02*
X54073590Y-39220000D01*
X54073590Y-39220000D02*
X54161795Y-39308205D01*
X47800033Y-39352033D02*
X47800033Y-38404854D01*
X46355306Y-27254990D02*
X47794990Y-27254990D01*
X44963612Y-28646684D02*
X46355306Y-27254990D01*
X46586411Y-35460000D02*
X45450000Y-35460000D01*
X49690000Y-40767000D02*
X49215000Y-40767000D01*
X47794990Y-27254990D02*
X49450000Y-28910000D01*
X47359978Y-37964799D02*
X47359978Y-36233567D01*
X49215000Y-40767000D02*
X47800033Y-39352033D01*
X45450000Y-35460000D02*
X44963612Y-34973612D01*
X47359978Y-36233567D02*
X46586411Y-35460000D01*
X47800033Y-38404854D02*
X47359978Y-37964799D01*
X55077120Y-49457880D02*
X55350000Y-49185000D01*
X55350000Y-49185000D02*
X55350000Y-48560000D01*
X46054424Y-51054000D02*
X49867020Y-51054000D01*
X49867020Y-51054000D02*
X51463140Y-49457880D01*
X45775000Y-47110000D02*
X44000000Y-47110000D01*
X44000000Y-47110000D02*
X43800000Y-47310000D01*
X45426711Y-48961711D02*
X45426711Y-50426287D01*
X45426711Y-50426287D02*
X44106998Y-51746000D01*
X44106998Y-51746000D02*
X42066000Y-51746000D01*
X45426711Y-48961711D02*
X43800000Y-47335000D01*
X43800000Y-47335000D02*
X43800000Y-47310000D01*
X43800000Y-47310000D02*
X41830000Y-47310000D01*
X41830000Y-47310000D02*
X41500000Y-47640000D01*
X41500000Y-51180000D02*
X42066000Y-51746000D01*
X51463140Y-49457880D02*
X53750000Y-51744740D01*
X53750000Y-51744740D02*
X53750000Y-51746000D01*
X50600000Y-40720000D02*
X50110000Y-40720000D01*
X43800000Y-47310000D02*
X44125000Y-47310000D01*
X52800000Y-51746000D02*
X53750000Y-51746000D01*
X51910000Y-29810000D02*
X51910000Y-30800000D01*
X51910000Y-30800000D02*
X52850000Y-31740000D01*
X52850000Y-31740000D02*
X52850000Y-32610000D01*
X42066000Y-51743020D02*
X42066000Y-51746000D01*
X53750000Y-51746000D02*
X54700000Y-51746000D01*
X54700000Y-51746000D02*
X55360000Y-51086000D01*
X55360000Y-51086000D02*
X55360000Y-48815000D01*
X55360000Y-48815000D02*
X55360000Y-48190000D01*
X55350000Y-48180000D02*
X55360000Y-48190000D01*
X49450000Y-28610000D02*
X49450000Y-29260000D01*
X49450000Y-29260000D02*
X50670000Y-30480000D01*
X50670000Y-30480000D02*
X51910000Y-30480000D01*
X51910000Y-31470000D02*
X51910000Y-30480000D01*
X52145000Y-30480000D02*
X52120000Y-30480000D01*
X52120000Y-30480000D02*
X51910000Y-30480000D01*
X41500000Y-48190000D02*
X41480000Y-48190000D01*
X48923140Y-49457880D02*
X48923140Y-47399140D01*
X46750000Y-46460000D02*
X45775000Y-46460000D01*
X48923140Y-47399140D02*
X48059001Y-46535001D01*
X48059001Y-46535001D02*
X46825001Y-46535001D01*
X46825001Y-46535001D02*
X46750000Y-46460000D01*
X48923140Y-49686860D02*
X48923140Y-49457880D01*
X45775000Y-45810000D02*
X47970410Y-45810000D01*
X47970410Y-45810000D02*
X50038000Y-47877590D01*
X49751159Y-50533451D02*
X47966711Y-50533451D01*
X50038000Y-47877590D02*
X50038000Y-50246610D01*
X47966711Y-50533451D02*
X46891140Y-49457880D01*
X50038000Y-50246610D02*
X49751159Y-50533451D01*
X46891140Y-49457880D02*
X46917880Y-49457880D01*
X46917880Y-49457880D02*
X46990000Y-49530000D01*
X46990000Y-49530000D02*
X46659998Y-49530000D01*
X41910000Y-40020000D02*
X41910000Y-40683413D01*
X41910000Y-40683413D02*
X43336587Y-42110000D01*
X43336587Y-42110000D02*
X46190943Y-42110000D01*
X41500000Y-40020000D02*
X40650001Y-40869999D01*
X40599990Y-49024992D02*
X41032878Y-49457880D01*
X40650001Y-40869999D02*
X40650001Y-45413589D01*
X40650001Y-45413589D02*
X40599990Y-45463600D01*
X40599990Y-45463600D02*
X40599990Y-49024992D01*
X41600000Y-35160000D02*
X41600000Y-35660000D01*
X41600000Y-35660000D02*
X41829002Y-35660000D01*
X43085001Y-36915999D02*
X43085001Y-38590999D01*
X41829002Y-35660000D02*
X43085001Y-36915999D01*
X43085001Y-38590999D02*
X42505999Y-39170001D01*
X42505999Y-39170001D02*
X41656000Y-40020000D01*
X44351140Y-49457880D02*
X41032878Y-49457880D01*
X50650000Y-47110000D02*
X51675000Y-47110000D01*
X47900000Y-44360000D02*
X50650000Y-47110000D01*
X41050000Y-40570000D02*
X41560000Y-40570000D01*
X47900000Y-43819057D02*
X47900000Y-44360000D01*
X46190943Y-42110000D02*
X47900000Y-43819057D01*
X53850000Y-48560000D02*
X53850000Y-47060000D01*
X53850000Y-47060000D02*
X53800000Y-47010000D01*
X44675000Y-49180000D02*
X44325000Y-49530000D01*
X43945000Y-49530000D02*
X44325000Y-49530000D01*
X41740000Y-40600000D02*
X41710000Y-40570000D01*
X41710000Y-40570000D02*
X41050000Y-40570000D01*
X51675000Y-47110000D02*
X51675000Y-47585000D01*
X51675000Y-47585000D02*
X52280000Y-48190000D01*
X52280000Y-48190000D02*
X53860000Y-48190000D01*
X51900000Y-47110000D02*
X51675000Y-47110000D01*
X53860000Y-48190000D02*
X53860000Y-48305000D01*
X43189999Y-40122001D02*
X43815000Y-39497000D01*
X43189999Y-41327001D02*
X43189999Y-40122001D01*
X43264998Y-41402000D02*
X43189999Y-41327001D01*
X43815000Y-39497000D02*
X44290000Y-39497000D01*
X46119354Y-41402000D02*
X43264998Y-41402000D01*
X50527354Y-45810000D02*
X46119354Y-41402000D01*
X51675000Y-45810000D02*
X50527354Y-45810000D01*
X54814001Y-40584999D02*
X52475001Y-40584999D01*
X51675000Y-45160000D02*
X52435002Y-45160000D01*
X52435002Y-45160000D02*
X52600001Y-45324999D01*
X52600001Y-45324999D02*
X52600001Y-45760001D01*
X52788588Y-45760001D02*
X52953599Y-45925012D01*
X52953599Y-45925012D02*
X55546401Y-45925012D01*
X55546401Y-45925012D02*
X55875012Y-45596401D01*
X55875012Y-45596401D02*
X55875012Y-43003599D01*
X52600001Y-45760001D02*
X52788588Y-45760001D01*
X55683989Y-42812576D02*
X55683989Y-41454987D01*
X48822987Y-41559989D02*
X48589999Y-41327001D01*
X47350022Y-39730022D02*
X47350022Y-38591254D01*
X55683989Y-41454987D02*
X54814001Y-40584999D01*
X47350022Y-38591254D02*
X46909967Y-38151199D01*
X46909967Y-37032797D02*
X45857169Y-35979999D01*
X45857169Y-35979999D02*
X44784997Y-35979999D01*
X44784997Y-35979999D02*
X42441013Y-33636015D01*
X48589999Y-41327001D02*
X48589999Y-40969999D01*
X55875012Y-43003599D02*
X55683989Y-42812576D01*
X52475001Y-40584999D02*
X51500011Y-41559989D01*
X42441013Y-33216011D02*
X42310001Y-33084999D01*
X42310001Y-33084999D02*
X40889998Y-33084999D01*
X48589999Y-40969999D02*
X47350022Y-39730022D01*
X46909967Y-38151199D02*
X46909967Y-37032797D01*
X40889998Y-33084999D02*
X40650001Y-33324996D01*
X40650001Y-33324996D02*
X40650001Y-37180001D01*
X40650001Y-37180001D02*
X40894000Y-37424000D01*
X42441013Y-33636015D02*
X42441013Y-33216011D01*
X51500011Y-41559989D02*
X48822987Y-41559989D01*
X40894000Y-37424000D02*
X41500000Y-38030000D01*
X40950000Y-37480000D02*
X40894000Y-37424000D01*
X41910000Y-37480000D02*
X40950000Y-37480000D01*
X49200176Y-43210000D02*
X51675000Y-43210000D01*
X47689977Y-41342799D02*
X47689977Y-41699801D01*
X44950000Y-38602822D02*
X47689977Y-41342799D01*
X44950000Y-38110000D02*
X44950000Y-38602822D01*
X47689977Y-41699801D02*
X49200176Y-43210000D01*
X41500000Y-45100000D02*
X42702081Y-45100000D01*
X42702081Y-45100000D02*
X43292081Y-44510000D01*
X43292081Y-44510000D02*
X45775000Y-44510000D01*
X41050000Y-45650000D02*
X41310000Y-45650000D01*
X43800000Y-45810000D02*
X44450000Y-45160000D01*
X44450000Y-45160000D02*
X45775000Y-45160000D01*
X54155001Y-35105001D02*
X54538001Y-35105001D01*
X54538001Y-35105001D02*
X55361000Y-35928000D01*
X55361000Y-35928000D02*
X55361000Y-36322000D01*
X54000000Y-30660000D02*
X54155001Y-30815001D01*
X54155001Y-30815001D02*
X54155001Y-35105001D01*
X55361000Y-36322000D02*
X55880000Y-36322000D01*
X55486000Y-36322000D02*
X55361000Y-36322000D01*
X54000000Y-30660000D02*
X54000000Y-29960000D01*
X41910000Y-29870000D02*
X41910000Y-29810000D01*
X41910000Y-29810000D02*
X42000000Y-29810000D01*
X42000000Y-29810000D02*
X45005021Y-26804979D01*
X45005021Y-26804979D02*
X52544979Y-26804979D01*
X52544979Y-26804979D02*
X54100000Y-28360000D01*
X54100000Y-28360000D02*
X54100000Y-29885000D01*
X54100000Y-29885000D02*
X54100000Y-30021411D01*
X44000000Y-31860000D02*
X43210000Y-31860000D01*
X43210000Y-31860000D02*
X41900000Y-30550000D01*
X41900000Y-30550000D02*
X41900000Y-29560000D01*
X55050000Y-27885000D02*
X54914316Y-28020684D01*
X54914316Y-28020684D02*
X54914316Y-30474316D01*
X55600000Y-31160000D02*
X55600000Y-31560000D01*
X54914316Y-30474316D02*
X55600000Y-31160000D01*
X53086000Y-35372000D02*
X53480000Y-35372000D01*
X51562000Y-36080000D02*
X51562000Y-36105000D01*
X51562000Y-36105000D02*
X50861999Y-36805001D01*
X50861999Y-36805001D02*
X50861999Y-38800001D01*
X50861999Y-38800001D02*
X50165000Y-39497000D01*
X50165000Y-39497000D02*
X49690000Y-39497000D01*
X51562000Y-36080000D02*
X52270000Y-35372000D01*
X52270000Y-35372000D02*
X53086000Y-35372000D01*
X46900000Y-35137178D02*
X47809989Y-36047167D01*
X47900000Y-31470000D02*
X47900000Y-32674998D01*
X48250044Y-38218454D02*
X48250044Y-38532044D01*
X47809989Y-36047167D02*
X47809989Y-37778399D01*
X49215000Y-39497000D02*
X49690000Y-39497000D01*
X47809989Y-37778399D02*
X48250044Y-38218454D01*
X47900000Y-32674998D02*
X46900000Y-33674998D01*
X46910000Y-30480000D02*
X47900000Y-31470000D01*
X48250044Y-38532044D02*
X49215000Y-39497000D01*
X46900000Y-33674998D02*
X46900000Y-35137178D01*
X52850000Y-34110000D02*
X50800000Y-34110000D01*
X50800000Y-34110000D02*
X50650000Y-34260000D01*
X50650000Y-34260000D02*
X50600000Y-34260000D01*
X50600000Y-34260000D02*
X49450000Y-33110000D01*
X49450000Y-33110000D02*
X49450000Y-32760000D01*
X50165000Y-38227000D02*
X49690000Y-38227000D01*
X49215000Y-38227000D02*
X48260000Y-37272000D01*
X49690000Y-38227000D02*
X49215000Y-38227000D01*
X48260000Y-34150000D02*
X48260000Y-37272000D01*
X47650000Y-34260000D02*
X48150000Y-34260000D01*
X48150000Y-34260000D02*
X48260000Y-34150000D01*
X49450000Y-32610000D02*
X49450000Y-32960000D01*
X49450000Y-32960000D02*
X48260000Y-34150000D01*
X46150000Y-34260000D02*
X46150000Y-32960000D01*
X46150000Y-32960000D02*
X46000000Y-32810000D01*
X46120765Y-40767000D02*
X44290000Y-40767000D01*
X49213765Y-43860000D02*
X46120765Y-40767000D01*
X51675000Y-43860000D02*
X49213765Y-43860000D01*
X54200000Y-44450000D02*
X54140000Y-44450000D01*
X54140000Y-44450000D02*
X53950000Y-44260000D01*
X53950000Y-44260000D02*
X53950000Y-44210000D01*
X53950000Y-44210000D02*
X53600000Y-43860000D01*
X53600000Y-43860000D02*
X51675000Y-43860000D01*
X51675000Y-43760001D02*
X51675000Y-43860000D01*
X55425001Y-43189999D02*
X54200000Y-41964998D01*
X52421413Y-44510000D02*
X53074999Y-45163586D01*
X53074999Y-45163586D02*
X53074999Y-45410001D01*
X53074999Y-45410001D02*
X53139999Y-45475001D01*
X51675000Y-44510000D02*
X52421413Y-44510000D01*
X54200000Y-41964998D02*
X54200000Y-41910000D01*
X55425001Y-45410001D02*
X55425001Y-43189999D01*
X53139999Y-45475001D02*
X55360001Y-45475001D01*
X55360001Y-45475001D02*
X55425001Y-45410001D01*
X46800000Y-38677643D02*
X46800000Y-39816411D01*
X46800000Y-39816411D02*
X48139988Y-41156399D01*
X45200000Y-36910000D02*
X45200000Y-37077643D01*
X45200000Y-37077643D02*
X46800000Y-38677643D01*
X48139988Y-41513401D02*
X48676587Y-42050000D01*
X54550000Y-42050000D02*
X54510000Y-42010000D01*
X48139988Y-41156399D02*
X48139988Y-41513401D01*
X48676587Y-42050000D02*
X54550000Y-42050000D01*
X44175000Y-36910000D02*
X43000000Y-35735000D01*
X43000000Y-35735000D02*
X43000000Y-34860000D01*
X43000000Y-34860000D02*
X41800000Y-33660000D01*
X45200000Y-36910000D02*
X44175000Y-36910000D01*
X41800000Y-33660000D02*
X41600000Y-33660000D01*
X45775000Y-43860000D02*
X42800000Y-43860000D01*
X42800000Y-43860000D02*
X41500000Y-42560000D01*
X55486000Y-35372000D02*
X55880000Y-35372000D01*
X55486000Y-35372000D02*
X55486000Y-33174000D01*
X55486000Y-33174000D02*
X55600000Y-33060000D01*
X53480000Y-37272000D02*
X53480000Y-37541000D01*
X53480000Y-37541000D02*
X53686000Y-37747000D01*
X55798001Y-46309999D02*
X55797825Y-46309999D01*
X55797825Y-46309999D02*
X55647824Y-46460000D01*
X55647824Y-46460000D02*
X52525000Y-46460000D01*
X52525000Y-46460000D02*
X51550000Y-46460000D01*
X56134000Y-45974000D02*
X55798001Y-46309999D01*
X56134000Y-45973824D02*
X56134000Y-45974000D01*
X56325023Y-45782801D02*
X56134000Y-45973824D01*
X56325023Y-39556021D02*
X56325023Y-45782801D01*
X53686000Y-37747000D02*
X54516002Y-37747000D01*
X54516002Y-37747000D02*
X56325023Y-39556021D01*
D29*
G36*
X55507000Y-47371000D02*
X55487000Y-47371000D01*
X55487000Y-47906750D01*
X55477000Y-47916750D01*
X55477000Y-48641000D01*
X55497000Y-48641000D01*
X55497000Y-48895000D01*
X55477000Y-48895000D01*
X55477000Y-49619250D01*
X55635750Y-49778000D01*
X55876309Y-49778000D01*
X56040000Y-49710197D01*
X56040000Y-53350000D01*
X55001979Y-53350000D01*
X55085000Y-53073000D01*
X55085000Y-51873000D01*
X53877000Y-51873000D01*
X53877000Y-51893000D01*
X53623000Y-51893000D01*
X53623000Y-51873000D01*
X52415000Y-51873000D01*
X52415000Y-53073000D01*
X52498021Y-53350000D01*
X48299117Y-53350000D01*
X48350657Y-53328704D01*
X48599829Y-53079967D01*
X48734846Y-52754810D01*
X48735153Y-52402735D01*
X48600704Y-52077343D01*
X48351967Y-51828171D01*
X48026810Y-51693154D01*
X47674735Y-51692847D01*
X47349343Y-51827296D01*
X47100171Y-52076033D01*
X46965154Y-52401190D01*
X46964847Y-52753265D01*
X47099296Y-53078657D01*
X47348033Y-53327829D01*
X47401427Y-53350000D01*
X43317979Y-53350000D01*
X43401000Y-53073000D01*
X43401000Y-51873000D01*
X42193000Y-51873000D01*
X42193000Y-51893000D01*
X41939000Y-51893000D01*
X41939000Y-51873000D01*
X40731000Y-51873000D01*
X40731000Y-53073000D01*
X40814021Y-53350000D01*
X40577000Y-53350000D01*
X40577000Y-50049753D01*
X40742039Y-50160028D01*
X40804872Y-50172526D01*
X40731000Y-50419000D01*
X40731000Y-51619000D01*
X41939000Y-51619000D01*
X41939000Y-51599000D01*
X42193000Y-51599000D01*
X42193000Y-51619000D01*
X43401000Y-51619000D01*
X43401000Y-50467284D01*
X43565253Y-50631824D01*
X44074324Y-50843209D01*
X44625538Y-50843690D01*
X45134977Y-50633194D01*
X45525084Y-50243767D01*
X45621115Y-50012499D01*
X45715826Y-50241717D01*
X46105253Y-50631824D01*
X46614324Y-50843209D01*
X47165538Y-50843690D01*
X47191444Y-50832986D01*
X47429310Y-51070852D01*
X47675872Y-51235599D01*
X47966711Y-51293451D01*
X49751159Y-51293451D01*
X50041998Y-51235599D01*
X50288560Y-51070852D01*
X50575401Y-50784011D01*
X50712780Y-50578409D01*
X50738875Y-50670811D01*
X51258174Y-50855647D01*
X51808678Y-50827685D01*
X52187405Y-50670811D01*
X52255464Y-50429812D01*
X52370517Y-50544865D01*
X52415000Y-50500382D01*
X52415000Y-51619000D01*
X53623000Y-51619000D01*
X53623000Y-51599000D01*
X53877000Y-51599000D01*
X53877000Y-51619000D01*
X55085000Y-51619000D01*
X55085000Y-50419000D01*
X54934778Y-49917785D01*
X54819381Y-49776215D01*
X54823691Y-49778000D01*
X55064250Y-49778000D01*
X55223000Y-49619250D01*
X55223000Y-48895000D01*
X55203000Y-48895000D01*
X55203000Y-48641000D01*
X55223000Y-48641000D01*
X55223000Y-48105250D01*
X55233000Y-48095250D01*
X55233000Y-47371000D01*
X55213000Y-47371000D01*
X55213000Y-47220000D01*
X55507000Y-47220000D01*
X55507000Y-47371000D01*
X55507000Y-47371000D01*
G37*
X55507000Y-47371000D02*
X55487000Y-47371000D01*
X55487000Y-47906750D01*
X55477000Y-47916750D01*
X55477000Y-48641000D01*
X55497000Y-48641000D01*
X55497000Y-48895000D01*
X55477000Y-48895000D01*
X55477000Y-49619250D01*
X55635750Y-49778000D01*
X55876309Y-49778000D01*
X56040000Y-49710197D01*
X56040000Y-53350000D01*
X55001979Y-53350000D01*
X55085000Y-53073000D01*
X55085000Y-51873000D01*
X53877000Y-51873000D01*
X53877000Y-51893000D01*
X53623000Y-51893000D01*
X53623000Y-51873000D01*
X52415000Y-51873000D01*
X52415000Y-53073000D01*
X52498021Y-53350000D01*
X48299117Y-53350000D01*
X48350657Y-53328704D01*
X48599829Y-53079967D01*
X48734846Y-52754810D01*
X48735153Y-52402735D01*
X48600704Y-52077343D01*
X48351967Y-51828171D01*
X48026810Y-51693154D01*
X47674735Y-51692847D01*
X47349343Y-51827296D01*
X47100171Y-52076033D01*
X46965154Y-52401190D01*
X46964847Y-52753265D01*
X47099296Y-53078657D01*
X47348033Y-53327829D01*
X47401427Y-53350000D01*
X43317979Y-53350000D01*
X43401000Y-53073000D01*
X43401000Y-51873000D01*
X42193000Y-51873000D01*
X42193000Y-51893000D01*
X41939000Y-51893000D01*
X41939000Y-51873000D01*
X40731000Y-51873000D01*
X40731000Y-53073000D01*
X40814021Y-53350000D01*
X40577000Y-53350000D01*
X40577000Y-50049753D01*
X40742039Y-50160028D01*
X40804872Y-50172526D01*
X40731000Y-50419000D01*
X40731000Y-51619000D01*
X41939000Y-51619000D01*
X41939000Y-51599000D01*
X42193000Y-51599000D01*
X42193000Y-51619000D01*
X43401000Y-51619000D01*
X43401000Y-50467284D01*
X43565253Y-50631824D01*
X44074324Y-50843209D01*
X44625538Y-50843690D01*
X45134977Y-50633194D01*
X45525084Y-50243767D01*
X45621115Y-50012499D01*
X45715826Y-50241717D01*
X46105253Y-50631824D01*
X46614324Y-50843209D01*
X47165538Y-50843690D01*
X47191444Y-50832986D01*
X47429310Y-51070852D01*
X47675872Y-51235599D01*
X47966711Y-51293451D01*
X49751159Y-51293451D01*
X50041998Y-51235599D01*
X50288560Y-51070852D01*
X50575401Y-50784011D01*
X50712780Y-50578409D01*
X50738875Y-50670811D01*
X51258174Y-50855647D01*
X51808678Y-50827685D01*
X52187405Y-50670811D01*
X52255464Y-50429812D01*
X52370517Y-50544865D01*
X52415000Y-50500382D01*
X52415000Y-51619000D01*
X53623000Y-51619000D01*
X53623000Y-51599000D01*
X53877000Y-51599000D01*
X53877000Y-51619000D01*
X55085000Y-51619000D01*
X55085000Y-50419000D01*
X54934778Y-49917785D01*
X54819381Y-49776215D01*
X54823691Y-49778000D01*
X55064250Y-49778000D01*
X55223000Y-49619250D01*
X55223000Y-48895000D01*
X55203000Y-48895000D01*
X55203000Y-48641000D01*
X55223000Y-48641000D01*
X55223000Y-48105250D01*
X55233000Y-48095250D01*
X55233000Y-47371000D01*
X55213000Y-47371000D01*
X55213000Y-47220000D01*
X55507000Y-47220000D01*
X55507000Y-47371000D01*
G36*
X51656888Y-49443738D02*
X51642745Y-49457880D01*
X51656888Y-49472023D01*
X51477283Y-49651628D01*
X51463140Y-49637485D01*
X51448998Y-49651628D01*
X51269393Y-49472023D01*
X51283535Y-49457880D01*
X51269393Y-49443738D01*
X51448998Y-49264133D01*
X51463140Y-49278275D01*
X51477283Y-49264133D01*
X51656888Y-49443738D01*
X51656888Y-49443738D01*
G37*
X51656888Y-49443738D02*
X51642745Y-49457880D01*
X51656888Y-49472023D01*
X51477283Y-49651628D01*
X51463140Y-49637485D01*
X51448998Y-49651628D01*
X51269393Y-49472023D01*
X51283535Y-49457880D01*
X51269393Y-49443738D01*
X51448998Y-49264133D01*
X51463140Y-49278275D01*
X51477283Y-49264133D01*
X51656888Y-49443738D01*
G36*
X42037000Y-47513000D02*
X42057000Y-47513000D01*
X42057000Y-47767000D01*
X42037000Y-47767000D01*
X42037000Y-47787000D01*
X41783000Y-47787000D01*
X41783000Y-47767000D01*
X41763000Y-47767000D01*
X41763000Y-47513000D01*
X41783000Y-47513000D01*
X41783000Y-47493000D01*
X42037000Y-47493000D01*
X42037000Y-47513000D01*
X42037000Y-47513000D01*
G37*
X42037000Y-47513000D02*
X42057000Y-47513000D01*
X42057000Y-47767000D01*
X42037000Y-47767000D01*
X42037000Y-47787000D01*
X41783000Y-47787000D01*
X41783000Y-47767000D01*
X41763000Y-47767000D01*
X41763000Y-47513000D01*
X41783000Y-47513000D01*
X41783000Y-47493000D01*
X42037000Y-47493000D01*
X42037000Y-47513000D01*
G36*
X43927000Y-47183000D02*
X43947000Y-47183000D01*
X43947000Y-47437000D01*
X43927000Y-47437000D01*
X43927000Y-47457000D01*
X43673000Y-47457000D01*
X43673000Y-47437000D01*
X43653000Y-47437000D01*
X43653000Y-47183000D01*
X43673000Y-47183000D01*
X43673000Y-47163000D01*
X43927000Y-47163000D01*
X43927000Y-47183000D01*
X43927000Y-47183000D01*
G37*
X43927000Y-47183000D02*
X43947000Y-47183000D01*
X43947000Y-47437000D01*
X43927000Y-47437000D01*
X43927000Y-47457000D01*
X43673000Y-47457000D01*
X43673000Y-47437000D01*
X43653000Y-47437000D01*
X43653000Y-47183000D01*
X43673000Y-47183000D01*
X43673000Y-47163000D01*
X43927000Y-47163000D01*
X43927000Y-47183000D01*
G36*
X52526838Y-37732317D02*
X52665910Y-37948441D01*
X52878110Y-38093431D01*
X52977821Y-38113623D01*
X53139953Y-38275755D01*
X52978355Y-38453076D01*
X52808524Y-38863110D01*
X52929845Y-39093000D01*
X54123000Y-39093000D01*
X54123000Y-39073000D01*
X54377000Y-39073000D01*
X54377000Y-39093000D01*
X54397000Y-39093000D01*
X54397000Y-39347000D01*
X54377000Y-39347000D01*
X54377000Y-39367000D01*
X54123000Y-39367000D01*
X54123000Y-39347000D01*
X52929845Y-39347000D01*
X52808524Y-39576890D01*
X52911288Y-39824999D01*
X52475001Y-39824999D01*
X52184162Y-39882851D01*
X51937600Y-40047598D01*
X51185209Y-40799989D01*
X49543000Y-40799989D01*
X49543000Y-40640000D01*
X49563000Y-40640000D01*
X49563000Y-40620000D01*
X49817000Y-40620000D01*
X49817000Y-40640000D01*
X50941250Y-40640000D01*
X51100000Y-40481250D01*
X51100000Y-40340690D01*
X51010194Y-40123878D01*
X51061431Y-40048890D01*
X51112440Y-39797000D01*
X51112440Y-39624362D01*
X51399400Y-39337402D01*
X51564147Y-39090841D01*
X51576672Y-39027874D01*
X51621999Y-38800001D01*
X51621999Y-38615000D01*
X51689002Y-38615000D01*
X51689002Y-38456252D01*
X51847750Y-38615000D01*
X52063310Y-38615000D01*
X52296699Y-38518327D01*
X52475327Y-38339698D01*
X52572000Y-38106309D01*
X52572000Y-37865750D01*
X52413252Y-37707002D01*
X52522075Y-37707002D01*
X52526838Y-37732317D01*
X52526838Y-37732317D01*
G37*
X52526838Y-37732317D02*
X52665910Y-37948441D01*
X52878110Y-38093431D01*
X52977821Y-38113623D01*
X53139953Y-38275755D01*
X52978355Y-38453076D01*
X52808524Y-38863110D01*
X52929845Y-39093000D01*
X54123000Y-39093000D01*
X54123000Y-39073000D01*
X54377000Y-39073000D01*
X54377000Y-39093000D01*
X54397000Y-39093000D01*
X54397000Y-39347000D01*
X54377000Y-39347000D01*
X54377000Y-39367000D01*
X54123000Y-39367000D01*
X54123000Y-39347000D01*
X52929845Y-39347000D01*
X52808524Y-39576890D01*
X52911288Y-39824999D01*
X52475001Y-39824999D01*
X52184162Y-39882851D01*
X51937600Y-40047598D01*
X51185209Y-40799989D01*
X49543000Y-40799989D01*
X49543000Y-40640000D01*
X49563000Y-40640000D01*
X49563000Y-40620000D01*
X49817000Y-40620000D01*
X49817000Y-40640000D01*
X50941250Y-40640000D01*
X51100000Y-40481250D01*
X51100000Y-40340690D01*
X51010194Y-40123878D01*
X51061431Y-40048890D01*
X51112440Y-39797000D01*
X51112440Y-39624362D01*
X51399400Y-39337402D01*
X51564147Y-39090841D01*
X51576672Y-39027874D01*
X51621999Y-38800001D01*
X51621999Y-38615000D01*
X51689002Y-38615000D01*
X51689002Y-38456252D01*
X51847750Y-38615000D01*
X52063310Y-38615000D01*
X52296699Y-38518327D01*
X52475327Y-38339698D01*
X52572000Y-38106309D01*
X52572000Y-37865750D01*
X52413252Y-37707002D01*
X52522075Y-37707002D01*
X52526838Y-37732317D01*
G36*
X56027000Y-37384500D02*
X56007000Y-37384500D01*
X56007000Y-37419000D01*
X55753000Y-37419000D01*
X55753000Y-37384500D01*
X55733000Y-37384500D01*
X55733000Y-37194440D01*
X56027000Y-37194440D01*
X56027000Y-37384500D01*
X56027000Y-37384500D01*
G37*
X56027000Y-37384500D02*
X56007000Y-37384500D01*
X56007000Y-37419000D01*
X55753000Y-37419000D01*
X55753000Y-37384500D01*
X55733000Y-37384500D01*
X55733000Y-37194440D01*
X56027000Y-37194440D01*
X56027000Y-37384500D01*
G36*
X54601000Y-36242802D02*
X54601000Y-36322000D01*
X54658852Y-36612839D01*
X54823599Y-36859401D01*
X54899406Y-36910053D01*
X54895000Y-36920690D01*
X54895000Y-37000750D01*
X55039248Y-37144998D01*
X54956721Y-37144998D01*
X54806841Y-37044852D01*
X54516002Y-36987000D01*
X54466150Y-36987000D01*
X54433162Y-36811683D01*
X54417662Y-36787595D01*
X54465000Y-36673310D01*
X54465000Y-36593250D01*
X54306250Y-36434500D01*
X54002539Y-36434500D01*
X53830000Y-36399560D01*
X53333000Y-36399560D01*
X53333000Y-36244440D01*
X53830000Y-36244440D01*
X54015690Y-36209500D01*
X54306250Y-36209500D01*
X54436974Y-36078776D01*
X54601000Y-36242802D01*
X54601000Y-36242802D01*
G37*
X54601000Y-36242802D02*
X54601000Y-36322000D01*
X54658852Y-36612839D01*
X54823599Y-36859401D01*
X54899406Y-36910053D01*
X54895000Y-36920690D01*
X54895000Y-37000750D01*
X55039248Y-37144998D01*
X54956721Y-37144998D01*
X54806841Y-37044852D01*
X54516002Y-36987000D01*
X54466150Y-36987000D01*
X54433162Y-36811683D01*
X54417662Y-36787595D01*
X54465000Y-36673310D01*
X54465000Y-36593250D01*
X54306250Y-36434500D01*
X54002539Y-36434500D01*
X53830000Y-36399560D01*
X53333000Y-36399560D01*
X53333000Y-36244440D01*
X53830000Y-36244440D01*
X54015690Y-36209500D01*
X54306250Y-36209500D01*
X54436974Y-36078776D01*
X54601000Y-36242802D01*
G36*
X45198110Y-33656431D02*
X45232258Y-33663346D01*
X45202560Y-33810000D01*
X45202560Y-34710000D01*
X45246838Y-34945317D01*
X45385910Y-35161441D01*
X45471613Y-35219999D01*
X45099799Y-35219999D01*
X44507588Y-34627788D01*
X44585317Y-34613162D01*
X44801441Y-34474090D01*
X44946431Y-34261890D01*
X44997440Y-34010000D01*
X44997440Y-33519319D01*
X45198110Y-33656431D01*
X45198110Y-33656431D01*
G37*
X45198110Y-33656431D02*
X45232258Y-33663346D01*
X45202560Y-33810000D01*
X45202560Y-34710000D01*
X45246838Y-34945317D01*
X45385910Y-35161441D01*
X45471613Y-35219999D01*
X45099799Y-35219999D01*
X44507588Y-34627788D01*
X44585317Y-34613162D01*
X44801441Y-34474090D01*
X44946431Y-34261890D01*
X44997440Y-34010000D01*
X44997440Y-33519319D01*
X45198110Y-33656431D01*
G36*
X51395472Y-32099905D02*
X51521135Y-32130218D01*
X51772998Y-32010741D01*
X51772998Y-32175000D01*
X51840000Y-32175000D01*
X51840000Y-32324250D01*
X51998750Y-32483000D01*
X52723000Y-32483000D01*
X52723000Y-32463000D01*
X52977000Y-32463000D01*
X52977000Y-32483000D01*
X52997000Y-32483000D01*
X52997000Y-32737000D01*
X52977000Y-32737000D01*
X52977000Y-32757000D01*
X52723000Y-32757000D01*
X52723000Y-32737000D01*
X51998750Y-32737000D01*
X51840000Y-32895750D01*
X51840000Y-33136309D01*
X51928514Y-33350000D01*
X50997440Y-33350000D01*
X50997440Y-31876712D01*
X51395472Y-32099905D01*
X51395472Y-32099905D01*
G37*
X51395472Y-32099905D02*
X51521135Y-32130218D01*
X51772998Y-32010741D01*
X51772998Y-32175000D01*
X51840000Y-32175000D01*
X51840000Y-32324250D01*
X51998750Y-32483000D01*
X52723000Y-32483000D01*
X52723000Y-32463000D01*
X52977000Y-32463000D01*
X52977000Y-32483000D01*
X52997000Y-32483000D01*
X52997000Y-32737000D01*
X52977000Y-32737000D01*
X52977000Y-32757000D01*
X52723000Y-32757000D01*
X52723000Y-32737000D01*
X51998750Y-32737000D01*
X51840000Y-32895750D01*
X51840000Y-33136309D01*
X51928514Y-33350000D01*
X50997440Y-33350000D01*
X50997440Y-31876712D01*
X51395472Y-32099905D01*
G36*
X45398696Y-27896908D02*
X45275000Y-28518769D01*
X45275000Y-30601231D01*
X45398696Y-31223092D01*
X45658930Y-31612560D01*
X45450000Y-31612560D01*
X45214683Y-31656838D01*
X44998559Y-31795910D01*
X44997440Y-31797548D01*
X44997440Y-31310000D01*
X44953162Y-31074683D01*
X44814090Y-30858559D01*
X44601890Y-30713569D01*
X44350000Y-30662560D01*
X43537440Y-30662560D01*
X43537440Y-29347362D01*
X45319823Y-27564979D01*
X45620483Y-27564979D01*
X45398696Y-27896908D01*
X45398696Y-27896908D01*
G37*
X45398696Y-27896908D02*
X45275000Y-28518769D01*
X45275000Y-30601231D01*
X45398696Y-31223092D01*
X45658930Y-31612560D01*
X45450000Y-31612560D01*
X45214683Y-31656838D01*
X44998559Y-31795910D01*
X44997440Y-31797548D01*
X44997440Y-31310000D01*
X44953162Y-31074683D01*
X44814090Y-30858559D01*
X44601890Y-30713569D01*
X44350000Y-30662560D01*
X43537440Y-30662560D01*
X43537440Y-29347362D01*
X45319823Y-27564979D01*
X45620483Y-27564979D01*
X45398696Y-27896908D01*
G36*
X49577000Y-28633000D02*
X49597000Y-28633000D01*
X49597000Y-28887000D01*
X49577000Y-28887000D01*
X49577000Y-30486250D01*
X49735750Y-30645000D01*
X50275000Y-30645000D01*
X50275000Y-30677000D01*
X50327224Y-30862560D01*
X48550000Y-30862560D01*
X48470025Y-30877608D01*
X48516294Y-30645000D01*
X49164250Y-30645000D01*
X49323000Y-30486250D01*
X49323000Y-28887000D01*
X49303000Y-28887000D01*
X49303000Y-28633000D01*
X49323000Y-28633000D01*
X49323000Y-28613000D01*
X49577000Y-28613000D01*
X49577000Y-28633000D01*
X49577000Y-28633000D01*
G37*
X49577000Y-28633000D02*
X49597000Y-28633000D01*
X49597000Y-28887000D01*
X49577000Y-28887000D01*
X49577000Y-30486250D01*
X49735750Y-30645000D01*
X50275000Y-30645000D01*
X50275000Y-30677000D01*
X50327224Y-30862560D01*
X48550000Y-30862560D01*
X48470025Y-30877608D01*
X48516294Y-30645000D01*
X49164250Y-30645000D01*
X49323000Y-30486250D01*
X49323000Y-28887000D01*
X49303000Y-28887000D01*
X49303000Y-28633000D01*
X49323000Y-28633000D01*
X49323000Y-28613000D01*
X49577000Y-28613000D01*
X49577000Y-28633000D01*
G36*
X52027000Y-29433000D02*
X52047000Y-29433000D01*
X52047000Y-29687000D01*
X52027000Y-29687000D01*
X52027000Y-29707000D01*
X51773000Y-29707000D01*
X51773000Y-29687000D01*
X51753000Y-29687000D01*
X51753000Y-29433000D01*
X51773000Y-29433000D01*
X51773000Y-29413000D01*
X52027000Y-29413000D01*
X52027000Y-29433000D01*
X52027000Y-29433000D01*
G37*
X52027000Y-29433000D02*
X52047000Y-29433000D01*
X52047000Y-29687000D01*
X52027000Y-29687000D01*
X52027000Y-29707000D01*
X51773000Y-29707000D01*
X51773000Y-29687000D01*
X51753000Y-29687000D01*
X51753000Y-29433000D01*
X51773000Y-29433000D01*
X51773000Y-29413000D01*
X52027000Y-29413000D01*
X52027000Y-29433000D01*
M02*
