G04 #@! TF.FileFunction,Copper,L1,Top,Signal*
%FSLAX46Y46*%
G04 Gerber Fmt 4.6, Leading zero omitted, Abs format (unit mm)*
G04 Created by KiCad (PCBNEW 4.0.4-stable) date 10/18/17 21:30:34*
%MOMM*%
%LPD*%
G01*
G04 APERTURE LIST*
%ADD10C,0.100000*%
%ADD11R,0.750000X0.800000*%
%ADD12R,1.450000X0.450000*%
%ADD13R,1.700000X1.700000*%
%ADD14O,1.700000X1.700000*%
%ADD15R,1.980000X3.960000*%
%ADD16O,1.980000X3.960000*%
%ADD17R,0.800000X0.750000*%
%ADD18R,1.270000X0.970000*%
%ADD19R,0.900000X0.500000*%
%ADD20R,1.800000X2.500000*%
%ADD21R,0.500000X0.900000*%
%ADD22R,0.800000X0.900000*%
%ADD23R,0.900000X0.800000*%
%ADD24C,1.000000*%
%ADD25C,1.501140*%
%ADD26O,1.400000X3.800000*%
%ADD27R,1.550000X0.600000*%
%ADD28C,0.250000*%
%ADD29C,0.254000*%
G04 APERTURE END LIST*
D10*
D11*
X53500000Y-37360000D03*
X53500000Y-35860000D03*
D12*
X51675000Y-47110000D03*
X51675000Y-46460000D03*
X51675000Y-45810000D03*
X51675000Y-45160000D03*
X51675000Y-44510000D03*
X51675000Y-43860000D03*
X51675000Y-43210000D03*
X45775000Y-43210000D03*
X45775000Y-43860000D03*
X45775000Y-44510000D03*
X45775000Y-45160000D03*
X45775000Y-45810000D03*
X45775000Y-46460000D03*
X45775000Y-47110000D03*
D13*
X41500000Y-47640000D03*
D14*
X41500000Y-45100000D03*
X41500000Y-42560000D03*
X41500000Y-40020000D03*
X41500000Y-37480000D03*
D15*
X41900000Y-29560000D03*
D16*
X46900000Y-29560000D03*
X51900000Y-29560000D03*
D11*
X43800000Y-45810000D03*
X43800000Y-47310000D03*
D17*
X53850000Y-46610000D03*
X55350000Y-46610000D03*
X53860000Y-48190000D03*
X55360000Y-48190000D03*
D18*
X55350000Y-34670000D03*
X55350000Y-35950000D03*
D19*
X55600000Y-31560000D03*
X55600000Y-33060000D03*
X41600000Y-33660000D03*
X41600000Y-35160000D03*
D11*
X52850000Y-32610000D03*
X52850000Y-34110000D03*
D20*
X49450000Y-32760000D03*
X49450000Y-28760000D03*
D21*
X47600000Y-34260000D03*
X46100000Y-34260000D03*
D22*
X54000000Y-29960000D03*
X55900000Y-29960000D03*
X54950000Y-27960000D03*
D23*
X43900000Y-31710000D03*
X43900000Y-33610000D03*
X45900000Y-32660000D03*
D24*
X47850000Y-52310000D03*
D25*
X44351140Y-49457880D03*
X46891140Y-49457880D03*
X48923140Y-49457880D03*
X51463140Y-49457880D03*
D26*
X42066000Y-51746000D03*
X53750000Y-51746000D03*
D27*
X45200000Y-36910000D03*
X45200000Y-38180000D03*
X45200000Y-39450000D03*
X45200000Y-40720000D03*
X50600000Y-40720000D03*
X50600000Y-39450000D03*
X50600000Y-38180000D03*
X50600000Y-36910000D03*
D13*
X54550000Y-44590000D03*
D14*
X54550000Y-42050000D03*
X54550000Y-39510000D03*
D28*
X53500000Y-38210000D02*
X53500000Y-38460000D01*
X53500000Y-38460000D02*
X54550000Y-39510000D01*
X56350009Y-38310009D02*
X55400000Y-37360000D01*
X55400000Y-37360000D02*
X53500000Y-37360000D01*
X56350009Y-47179991D02*
X55350000Y-48180000D01*
X56350009Y-38310009D02*
X56350009Y-47179991D01*
X51750000Y-39960000D02*
X51750000Y-40310000D01*
X51750000Y-40310000D02*
X51340000Y-40720000D01*
X51340000Y-40720000D02*
X50600000Y-40720000D01*
X53500000Y-37360000D02*
X53500000Y-38210000D01*
X53500000Y-38210000D02*
X51750000Y-39960000D01*
X50200000Y-50434999D02*
X50100000Y-50534999D01*
X47400000Y-45160000D02*
X49998711Y-47758711D01*
X49998711Y-47758711D02*
X49998711Y-50233710D01*
X47400000Y-43396410D02*
X47400000Y-45160000D01*
X45600000Y-42659999D02*
X46663589Y-42659999D01*
X46663589Y-42659999D02*
X47400000Y-43396410D01*
X49998711Y-50233710D02*
X50200000Y-50434999D01*
X44963612Y-34973612D02*
X44963612Y-28646684D01*
X46355306Y-27254990D02*
X47794990Y-27254990D01*
X47800033Y-38410033D02*
X47800033Y-36673622D01*
X47794990Y-27254990D02*
X49450000Y-28910000D01*
X44963612Y-28646684D02*
X46355306Y-27254990D01*
X45450000Y-35460000D02*
X44963612Y-34973612D01*
X47800033Y-36673622D02*
X46586411Y-35460000D01*
X46586411Y-35460000D02*
X45450000Y-35460000D01*
X49700000Y-40310000D02*
X47800033Y-38410033D01*
X49805000Y-40415000D02*
X49700000Y-40310000D01*
X50600000Y-40720000D02*
X50110000Y-40720000D01*
X50110000Y-40720000D02*
X49700000Y-40310000D01*
X41500000Y-43110000D02*
X41500000Y-43010000D01*
X41500000Y-43010000D02*
X41850001Y-42659999D01*
X41850001Y-42659999D02*
X45600000Y-42659999D01*
X43800000Y-47310000D02*
X44125000Y-47310000D01*
X44125000Y-47310000D02*
X44325000Y-47110000D01*
X45600000Y-42659999D02*
X45749999Y-42659999D01*
X48313599Y-50560009D02*
X48686401Y-50560009D01*
X48288589Y-50534999D02*
X48313599Y-50560009D01*
X45428259Y-50534999D02*
X48288589Y-50534999D01*
X44351140Y-49457880D02*
X45428259Y-50534999D01*
X48711411Y-50534999D02*
X50100000Y-50534999D01*
X48686401Y-50560009D02*
X48711411Y-50534999D01*
X45775000Y-47110000D02*
X44325000Y-47110000D01*
X44325000Y-47110000D02*
X44325000Y-49530000D01*
X50100000Y-50534999D02*
X51588999Y-50534999D01*
X52800000Y-51746000D02*
X53750000Y-51746000D01*
X51588999Y-50534999D02*
X52800000Y-51746000D01*
X51910000Y-29810000D02*
X51910000Y-30800000D01*
X51910000Y-30800000D02*
X52850000Y-31740000D01*
X52850000Y-31740000D02*
X52850000Y-32610000D01*
X55350000Y-46610000D02*
X55350000Y-48180000D01*
X44351140Y-49457880D02*
X42066000Y-51743020D01*
X42066000Y-51743020D02*
X42066000Y-51746000D01*
X53750000Y-51746000D02*
X54700000Y-51746000D01*
X54700000Y-51746000D02*
X55360000Y-51086000D01*
X55360000Y-51086000D02*
X55360000Y-48815000D01*
X55360000Y-48815000D02*
X55360000Y-48190000D01*
X55350000Y-48180000D02*
X55360000Y-48190000D01*
X49450000Y-28610000D02*
X49450000Y-29260000D01*
X49450000Y-29260000D02*
X50670000Y-30480000D01*
X44675000Y-49180000D02*
X44325000Y-49530000D01*
X43945000Y-49530000D02*
X44325000Y-49530000D01*
X50670000Y-30480000D02*
X51910000Y-30480000D01*
X51910000Y-31470000D02*
X51910000Y-30480000D01*
X52145000Y-30480000D02*
X52120000Y-30480000D01*
X52120000Y-30480000D02*
X51910000Y-30480000D01*
X46750000Y-46460000D02*
X46865000Y-46575000D01*
X46865000Y-46575000D02*
X46865000Y-47675000D01*
X46865000Y-49530000D02*
X46865000Y-47675000D01*
X46750000Y-46460000D02*
X45775000Y-46460000D01*
X45775000Y-45810000D02*
X46950000Y-45810000D01*
X46950000Y-45810000D02*
X48923140Y-47783140D01*
X48923140Y-49686860D02*
X48923140Y-49457880D01*
X48923140Y-47783140D02*
X48923140Y-49686860D01*
X41050000Y-40570000D02*
X41560000Y-40570000D01*
X41560000Y-40570000D02*
X43100000Y-42110000D01*
X43100000Y-42110000D02*
X46846413Y-42110000D01*
X47900000Y-43163587D02*
X47900000Y-44360000D01*
X46846413Y-42110000D02*
X47900000Y-43163587D01*
X47900000Y-44360000D02*
X50650000Y-47110000D01*
X50650000Y-47110000D02*
X50836410Y-47110000D01*
X50836410Y-47110000D02*
X51675000Y-47110000D01*
X41500000Y-35060000D02*
X42700000Y-36260000D01*
X42700000Y-36260000D02*
X42700000Y-38920000D01*
X42700000Y-38920000D02*
X41050000Y-40570000D01*
X41740000Y-40600000D02*
X41710000Y-40570000D01*
X41710000Y-40570000D02*
X41050000Y-40570000D01*
X51675000Y-47110000D02*
X51675000Y-47585000D01*
X51675000Y-47585000D02*
X52280000Y-48190000D01*
X52280000Y-48190000D02*
X52731020Y-48190000D01*
X51900000Y-47110000D02*
X51675000Y-47110000D01*
X53860000Y-48190000D02*
X53860000Y-46620000D01*
X53860000Y-46620000D02*
X53850000Y-46610000D01*
X51463140Y-49457880D02*
X52731020Y-48190000D01*
X52731020Y-48190000D02*
X53860000Y-48190000D01*
X53850000Y-48180000D02*
X53860000Y-48190000D01*
X53860000Y-48190000D02*
X53860000Y-48305000D01*
X43550000Y-39910000D02*
X44050000Y-39410000D01*
X43550000Y-41210000D02*
X43550000Y-39910000D01*
X43700000Y-41360000D02*
X43550000Y-41210000D01*
X44050000Y-39410000D02*
X45200000Y-39410000D01*
X45600000Y-41360000D02*
X43700000Y-41360000D01*
X48350011Y-42873601D02*
X46836410Y-41360000D01*
X48350011Y-43460011D02*
X48350011Y-42873601D01*
X46836410Y-41360000D02*
X45600000Y-41360000D01*
X50700000Y-45810000D02*
X48350011Y-43460011D01*
X51675000Y-45810000D02*
X50700000Y-45810000D01*
X45772822Y-41360000D02*
X45600000Y-41360000D01*
X55400000Y-40810000D02*
X55725001Y-41135001D01*
X55725001Y-41135001D02*
X55725001Y-45700001D01*
X51675000Y-45160000D02*
X52834998Y-45160000D01*
X52834998Y-45160000D02*
X53439999Y-45765001D01*
X53439999Y-45765001D02*
X55660001Y-45765001D01*
X52250000Y-40810000D02*
X55400000Y-40810000D01*
X51500011Y-41559989D02*
X52250000Y-40810000D01*
X47350022Y-39130024D02*
X47350022Y-37010022D01*
X51500011Y-41559989D02*
X49779987Y-41559989D01*
X42800000Y-33110000D02*
X42350000Y-32660000D01*
X42350000Y-32660000D02*
X41100000Y-32660000D01*
X44784997Y-35979999D02*
X42800000Y-33995002D01*
X40650001Y-37180001D02*
X41500000Y-38030000D01*
X49779987Y-41559989D02*
X47350022Y-39130024D01*
X40650001Y-33109999D02*
X40650001Y-37180001D01*
X47350022Y-37010022D02*
X46319999Y-35979999D01*
X46319999Y-35979999D02*
X44784997Y-35979999D01*
X42800000Y-33995002D02*
X42800000Y-33110000D01*
X41100000Y-32660000D02*
X40650001Y-33109999D01*
X50700000Y-43210000D02*
X51675000Y-43210000D01*
X50100000Y-43210000D02*
X50700000Y-43210000D01*
X46150000Y-38110000D02*
X46450000Y-38410000D01*
X44950000Y-38110000D02*
X46150000Y-38110000D01*
X46450000Y-38410000D02*
X46450000Y-39560000D01*
X46450000Y-39560000D02*
X50100000Y-43210000D01*
X41500000Y-48190000D02*
X41480000Y-48190000D01*
X41480000Y-48190000D02*
X40200000Y-46910000D01*
X40200000Y-46910000D02*
X40200000Y-44660998D01*
X40200000Y-44660998D02*
X41000998Y-43860000D01*
X41000998Y-43860000D02*
X42950000Y-43860000D01*
X42950000Y-43860000D02*
X45775000Y-43860000D01*
X41050000Y-45650000D02*
X41310000Y-45650000D01*
X41310000Y-45650000D02*
X42450000Y-44510000D01*
X44800000Y-44510000D02*
X45775000Y-44510000D01*
X42450000Y-44510000D02*
X44800000Y-44510000D01*
X43800000Y-45810000D02*
X44450000Y-45160000D01*
X44450000Y-45160000D02*
X45775000Y-45160000D01*
X41910000Y-29870000D02*
X41910000Y-29810000D01*
X41910000Y-29810000D02*
X42000000Y-29810000D01*
X42000000Y-29810000D02*
X45005021Y-26804979D01*
X45005021Y-26804979D02*
X52544979Y-26804979D01*
X52544979Y-26804979D02*
X54100000Y-28360000D01*
X54100000Y-28360000D02*
X54100000Y-29885000D01*
X54100000Y-29885000D02*
X54100000Y-30021411D01*
X44000000Y-31860000D02*
X43210000Y-31860000D01*
X43210000Y-31860000D02*
X41900000Y-30550000D01*
X41900000Y-30550000D02*
X41900000Y-29560000D01*
X55350000Y-34670000D02*
X55350000Y-33310000D01*
X55350000Y-33310000D02*
X55600000Y-33060000D01*
X55050000Y-27885000D02*
X54914316Y-28020684D01*
X54914316Y-28020684D02*
X54914316Y-30474316D01*
X55600000Y-31160000D02*
X55600000Y-31560000D01*
X54914316Y-30474316D02*
X55600000Y-31160000D01*
X53500000Y-35860000D02*
X55260000Y-35860000D01*
X55260000Y-35860000D02*
X55350000Y-35950000D01*
X53500000Y-35860000D02*
X52875000Y-35860000D01*
X52875000Y-35860000D02*
X52500000Y-36235000D01*
X52500000Y-36235000D02*
X52500000Y-38460000D01*
X52500000Y-38460000D02*
X51510000Y-39450000D01*
X51510000Y-39450000D02*
X50600000Y-39450000D01*
X46910000Y-30480000D02*
X47900000Y-31470000D01*
X47900000Y-31470000D02*
X47900000Y-32674998D01*
X47900000Y-32674998D02*
X46900000Y-33674998D01*
X46900000Y-33674998D02*
X46900000Y-35137178D01*
X46900000Y-35137178D02*
X48250044Y-36487222D01*
X49580000Y-39090000D02*
X49736411Y-39090000D01*
X48250044Y-36487222D02*
X48250044Y-37760044D01*
X48250044Y-37760044D02*
X49580000Y-39090000D01*
X49736411Y-39090000D02*
X49736411Y-39196411D01*
X49736411Y-39196411D02*
X49950000Y-39410000D01*
X49950000Y-39410000D02*
X50600000Y-39410000D01*
X50600000Y-39410000D02*
X50650000Y-39460000D01*
X50900000Y-39460000D02*
X50950000Y-39510000D01*
X49736411Y-39090000D02*
X50156411Y-39510000D01*
X55250000Y-36260000D02*
X55250000Y-36210000D01*
X55375000Y-36210000D02*
X55600000Y-35985000D01*
X55250000Y-36210000D02*
X55375000Y-36210000D01*
X49650000Y-38260000D02*
X51550000Y-38260000D01*
X51550000Y-38260000D02*
X52000000Y-37810000D01*
X52000000Y-37810000D02*
X52000000Y-35610000D01*
X52000000Y-35610000D02*
X52850000Y-34760000D01*
X52850000Y-34760000D02*
X52850000Y-34110000D01*
X50520000Y-38260000D02*
X50600000Y-38180000D01*
X49500000Y-38260000D02*
X49650000Y-38260000D01*
X49650000Y-38260000D02*
X50520000Y-38260000D01*
X48260000Y-34150000D02*
X48260000Y-35860768D01*
X48260000Y-35860768D02*
X48800000Y-36400768D01*
X48800000Y-36400768D02*
X48800000Y-37560000D01*
X48800000Y-37560000D02*
X49500000Y-38260000D01*
X47650000Y-34260000D02*
X48150000Y-34260000D01*
X48150000Y-34260000D02*
X48260000Y-34150000D01*
X49450000Y-32610000D02*
X49450000Y-32960000D01*
X49450000Y-32960000D02*
X48260000Y-34150000D01*
X46150000Y-34260000D02*
X46150000Y-32960000D01*
X46150000Y-32960000D02*
X46000000Y-32810000D01*
X52650000Y-44510000D02*
X52730000Y-44590000D01*
X52730000Y-44590000D02*
X54550000Y-44590000D01*
X44900000Y-40660000D02*
X46850000Y-40660000D01*
X46850000Y-40660000D02*
X50700000Y-44510000D01*
X50700000Y-44510000D02*
X51675000Y-44510000D01*
X51675000Y-44510000D02*
X52650000Y-44510000D01*
X54550000Y-42050000D02*
X54510000Y-42010000D01*
X54510000Y-42010000D02*
X52910000Y-42010000D01*
X52910000Y-42010000D02*
X52100000Y-42010000D01*
X51675000Y-43860000D02*
X52650000Y-43860000D01*
X52650000Y-43860000D02*
X53000000Y-43510000D01*
X53000000Y-43510000D02*
X53000000Y-42010000D01*
X53000000Y-42010000D02*
X49593588Y-42010000D01*
X49593588Y-42010000D02*
X46900011Y-39316423D01*
X46900011Y-39316423D02*
X46900011Y-37905654D01*
X46900011Y-37905654D02*
X46175000Y-37180643D01*
X46175000Y-37180643D02*
X45904357Y-36910000D01*
X45904357Y-36910000D02*
X45200000Y-36910000D01*
X45200000Y-36910000D02*
X44175000Y-36910000D01*
X44175000Y-36910000D02*
X43000000Y-35735000D01*
X43000000Y-35735000D02*
X43000000Y-35450000D01*
X46175000Y-37155000D02*
X46175000Y-37180643D01*
X43000000Y-35450000D02*
X43000000Y-34860000D01*
X43000000Y-34860000D02*
X41800000Y-33660000D01*
X41800000Y-33660000D02*
X41600000Y-33660000D01*
X51675000Y-43760001D02*
X51675000Y-43860000D01*
D29*
G36*
X55497000Y-46737000D02*
X55477000Y-46737000D01*
X55477000Y-47461250D01*
X55487000Y-47471250D01*
X55487000Y-48063000D01*
X55507000Y-48063000D01*
X55507000Y-48317000D01*
X55487000Y-48317000D01*
X55487000Y-49041250D01*
X55645750Y-49200000D01*
X55886309Y-49200000D01*
X56040000Y-49136339D01*
X56040000Y-53350000D01*
X55001979Y-53350000D01*
X55085000Y-53073000D01*
X55085000Y-51873000D01*
X53877000Y-51873000D01*
X53877000Y-51893000D01*
X53623000Y-51893000D01*
X53623000Y-51873000D01*
X52415000Y-51873000D01*
X52415000Y-53073000D01*
X52498021Y-53350000D01*
X48785566Y-53350000D01*
X49033629Y-53102370D01*
X49246757Y-52589100D01*
X49246913Y-52410164D01*
X49435155Y-52598735D01*
X49907276Y-52794777D01*
X50418481Y-52795223D01*
X50890943Y-52600005D01*
X51252735Y-52238845D01*
X51448777Y-51766724D01*
X51449223Y-51255519D01*
X51278893Y-50843290D01*
X51737538Y-50843690D01*
X52246977Y-50633194D01*
X52415000Y-50465464D01*
X52415000Y-51619000D01*
X53623000Y-51619000D01*
X53623000Y-51599000D01*
X53877000Y-51599000D01*
X53877000Y-51619000D01*
X55085000Y-51619000D01*
X55085000Y-50419000D01*
X54934778Y-49917785D01*
X54604185Y-49512210D01*
X54143550Y-49264020D01*
X54083329Y-49253284D01*
X53877002Y-49376625D01*
X53877002Y-49212440D01*
X54260000Y-49212440D01*
X54495317Y-49168162D01*
X54598646Y-49101671D01*
X54600302Y-49103327D01*
X54833691Y-49200000D01*
X55074250Y-49200000D01*
X55233000Y-49041250D01*
X55233000Y-48317000D01*
X55213000Y-48317000D01*
X55213000Y-48063000D01*
X55233000Y-48063000D01*
X55233000Y-47338750D01*
X55223000Y-47328750D01*
X55223000Y-46737000D01*
X55203000Y-46737000D01*
X55203000Y-46525001D01*
X55497000Y-46525001D01*
X55497000Y-46737000D01*
X55497000Y-46737000D01*
G37*
X55497000Y-46737000D02*
X55477000Y-46737000D01*
X55477000Y-47461250D01*
X55487000Y-47471250D01*
X55487000Y-48063000D01*
X55507000Y-48063000D01*
X55507000Y-48317000D01*
X55487000Y-48317000D01*
X55487000Y-49041250D01*
X55645750Y-49200000D01*
X55886309Y-49200000D01*
X56040000Y-49136339D01*
X56040000Y-53350000D01*
X55001979Y-53350000D01*
X55085000Y-53073000D01*
X55085000Y-51873000D01*
X53877000Y-51873000D01*
X53877000Y-51893000D01*
X53623000Y-51893000D01*
X53623000Y-51873000D01*
X52415000Y-51873000D01*
X52415000Y-53073000D01*
X52498021Y-53350000D01*
X48785566Y-53350000D01*
X49033629Y-53102370D01*
X49246757Y-52589100D01*
X49246913Y-52410164D01*
X49435155Y-52598735D01*
X49907276Y-52794777D01*
X50418481Y-52795223D01*
X50890943Y-52600005D01*
X51252735Y-52238845D01*
X51448777Y-51766724D01*
X51449223Y-51255519D01*
X51278893Y-50843290D01*
X51737538Y-50843690D01*
X52246977Y-50633194D01*
X52415000Y-50465464D01*
X52415000Y-51619000D01*
X53623000Y-51619000D01*
X53623000Y-51599000D01*
X53877000Y-51599000D01*
X53877000Y-51619000D01*
X55085000Y-51619000D01*
X55085000Y-50419000D01*
X54934778Y-49917785D01*
X54604185Y-49512210D01*
X54143550Y-49264020D01*
X54083329Y-49253284D01*
X53877002Y-49376625D01*
X53877002Y-49212440D01*
X54260000Y-49212440D01*
X54495317Y-49168162D01*
X54598646Y-49101671D01*
X54600302Y-49103327D01*
X54833691Y-49200000D01*
X55074250Y-49200000D01*
X55233000Y-49041250D01*
X55233000Y-48317000D01*
X55213000Y-48317000D01*
X55213000Y-48063000D01*
X55233000Y-48063000D01*
X55233000Y-47338750D01*
X55223000Y-47328750D01*
X55223000Y-46737000D01*
X55203000Y-46737000D01*
X55203000Y-46525001D01*
X55497000Y-46525001D01*
X55497000Y-46737000D01*
G36*
X45902000Y-47811250D02*
X46060750Y-47970000D01*
X46105000Y-47970000D01*
X46105000Y-48284865D01*
X45717196Y-48671993D01*
X45627761Y-48887376D01*
X45564071Y-48733615D01*
X45323070Y-48665555D01*
X44530745Y-49457880D01*
X44544888Y-49472023D01*
X44365283Y-49651628D01*
X44351140Y-49637485D01*
X44336998Y-49651628D01*
X44157393Y-49472023D01*
X44171535Y-49457880D01*
X43379210Y-48665555D01*
X43138209Y-48733615D01*
X42953373Y-49252914D01*
X42969624Y-49572863D01*
X42920185Y-49512210D01*
X42459550Y-49264020D01*
X42399329Y-49253284D01*
X42193000Y-49376626D01*
X42193000Y-51619000D01*
X43401000Y-51619000D01*
X43401000Y-50502102D01*
X43443763Y-50544865D01*
X43558816Y-50429812D01*
X43626875Y-50670811D01*
X44146174Y-50855647D01*
X44450757Y-50840176D01*
X44279223Y-51253276D01*
X44278777Y-51764481D01*
X44473995Y-52236943D01*
X44835155Y-52598735D01*
X45307276Y-52794777D01*
X45818481Y-52795223D01*
X46290943Y-52600005D01*
X46452887Y-52438343D01*
X46452758Y-52586661D01*
X46664990Y-53100303D01*
X46914252Y-53350000D01*
X43317979Y-53350000D01*
X43401000Y-53073000D01*
X43401000Y-51873000D01*
X42193000Y-51873000D01*
X42193000Y-51893000D01*
X41939000Y-51893000D01*
X41939000Y-51873000D01*
X40731000Y-51873000D01*
X40731000Y-53073000D01*
X40814021Y-53350000D01*
X40577000Y-53350000D01*
X40577000Y-50419000D01*
X40731000Y-50419000D01*
X40731000Y-51619000D01*
X41939000Y-51619000D01*
X41939000Y-49376626D01*
X41732671Y-49253284D01*
X41672450Y-49264020D01*
X41211815Y-49512210D01*
X40881222Y-49917785D01*
X40731000Y-50419000D01*
X40577000Y-50419000D01*
X40577000Y-49122657D01*
X40650000Y-49137440D01*
X42350000Y-49137440D01*
X42585317Y-49093162D01*
X42801441Y-48954090D01*
X42946431Y-48741890D01*
X42997440Y-48490000D01*
X42997440Y-48180466D01*
X43065301Y-48248327D01*
X43298690Y-48345000D01*
X43514250Y-48345000D01*
X43672998Y-48186252D01*
X43672998Y-48225844D01*
X43626875Y-48244949D01*
X43558815Y-48485950D01*
X44351140Y-49278275D01*
X45143465Y-48485950D01*
X45075405Y-48244949D01*
X44679125Y-48103900D01*
X44713327Y-48069698D01*
X44779383Y-47910225D01*
X44923691Y-47970000D01*
X45489250Y-47970000D01*
X45648000Y-47811250D01*
X45648000Y-47332440D01*
X45902000Y-47332440D01*
X45902000Y-47811250D01*
X45902000Y-47811250D01*
G37*
X45902000Y-47811250D02*
X46060750Y-47970000D01*
X46105000Y-47970000D01*
X46105000Y-48284865D01*
X45717196Y-48671993D01*
X45627761Y-48887376D01*
X45564071Y-48733615D01*
X45323070Y-48665555D01*
X44530745Y-49457880D01*
X44544888Y-49472023D01*
X44365283Y-49651628D01*
X44351140Y-49637485D01*
X44336998Y-49651628D01*
X44157393Y-49472023D01*
X44171535Y-49457880D01*
X43379210Y-48665555D01*
X43138209Y-48733615D01*
X42953373Y-49252914D01*
X42969624Y-49572863D01*
X42920185Y-49512210D01*
X42459550Y-49264020D01*
X42399329Y-49253284D01*
X42193000Y-49376626D01*
X42193000Y-51619000D01*
X43401000Y-51619000D01*
X43401000Y-50502102D01*
X43443763Y-50544865D01*
X43558816Y-50429812D01*
X43626875Y-50670811D01*
X44146174Y-50855647D01*
X44450757Y-50840176D01*
X44279223Y-51253276D01*
X44278777Y-51764481D01*
X44473995Y-52236943D01*
X44835155Y-52598735D01*
X45307276Y-52794777D01*
X45818481Y-52795223D01*
X46290943Y-52600005D01*
X46452887Y-52438343D01*
X46452758Y-52586661D01*
X46664990Y-53100303D01*
X46914252Y-53350000D01*
X43317979Y-53350000D01*
X43401000Y-53073000D01*
X43401000Y-51873000D01*
X42193000Y-51873000D01*
X42193000Y-51893000D01*
X41939000Y-51893000D01*
X41939000Y-51873000D01*
X40731000Y-51873000D01*
X40731000Y-53073000D01*
X40814021Y-53350000D01*
X40577000Y-53350000D01*
X40577000Y-50419000D01*
X40731000Y-50419000D01*
X40731000Y-51619000D01*
X41939000Y-51619000D01*
X41939000Y-49376626D01*
X41732671Y-49253284D01*
X41672450Y-49264020D01*
X41211815Y-49512210D01*
X40881222Y-49917785D01*
X40731000Y-50419000D01*
X40577000Y-50419000D01*
X40577000Y-49122657D01*
X40650000Y-49137440D01*
X42350000Y-49137440D01*
X42585317Y-49093162D01*
X42801441Y-48954090D01*
X42946431Y-48741890D01*
X42997440Y-48490000D01*
X42997440Y-48180466D01*
X43065301Y-48248327D01*
X43298690Y-48345000D01*
X43514250Y-48345000D01*
X43672998Y-48186252D01*
X43672998Y-48225844D01*
X43626875Y-48244949D01*
X43558815Y-48485950D01*
X44351140Y-49278275D01*
X45143465Y-48485950D01*
X45075405Y-48244949D01*
X44679125Y-48103900D01*
X44713327Y-48069698D01*
X44779383Y-47910225D01*
X44923691Y-47970000D01*
X45489250Y-47970000D01*
X45648000Y-47811250D01*
X45648000Y-47332440D01*
X45902000Y-47332440D01*
X45902000Y-47811250D01*
G36*
X47197852Y-44650839D02*
X47362599Y-44897401D01*
X50112599Y-47647401D01*
X50359160Y-47812148D01*
X50591038Y-47858272D01*
X50698110Y-47931431D01*
X50950000Y-47982440D01*
X51044080Y-47982440D01*
X51122310Y-48099519D01*
X50679303Y-48282566D01*
X50289196Y-48671993D01*
X50193165Y-48903261D01*
X50098454Y-48674043D01*
X49709027Y-48283936D01*
X49683140Y-48273187D01*
X49683140Y-47783140D01*
X49649127Y-47612148D01*
X49625288Y-47492300D01*
X49460541Y-47245739D01*
X47487401Y-45272599D01*
X47240839Y-45107852D01*
X47147440Y-45089274D01*
X47147440Y-44935000D01*
X47127933Y-44831329D01*
X47147440Y-44735000D01*
X47147440Y-44397401D01*
X47197852Y-44650839D01*
X47197852Y-44650839D01*
G37*
X47197852Y-44650839D02*
X47362599Y-44897401D01*
X50112599Y-47647401D01*
X50359160Y-47812148D01*
X50591038Y-47858272D01*
X50698110Y-47931431D01*
X50950000Y-47982440D01*
X51044080Y-47982440D01*
X51122310Y-48099519D01*
X50679303Y-48282566D01*
X50289196Y-48671993D01*
X50193165Y-48903261D01*
X50098454Y-48674043D01*
X49709027Y-48283936D01*
X49683140Y-48273187D01*
X49683140Y-47783140D01*
X49649127Y-47612148D01*
X49625288Y-47492300D01*
X49460541Y-47245739D01*
X47487401Y-45272599D01*
X47240839Y-45107852D01*
X47147440Y-45089274D01*
X47147440Y-44935000D01*
X47127933Y-44831329D01*
X47147440Y-44735000D01*
X47147440Y-44397401D01*
X47197852Y-44650839D01*
G36*
X43927000Y-47183000D02*
X43947000Y-47183000D01*
X43947000Y-47437000D01*
X43927000Y-47437000D01*
X43927000Y-47457000D01*
X43673000Y-47457000D01*
X43673000Y-47437000D01*
X43653000Y-47437000D01*
X43653000Y-47183000D01*
X43673000Y-47183000D01*
X43673000Y-47163000D01*
X43927000Y-47163000D01*
X43927000Y-47183000D01*
X43927000Y-47183000D01*
G37*
X43927000Y-47183000D02*
X43947000Y-47183000D01*
X43947000Y-47437000D01*
X43927000Y-47437000D01*
X43927000Y-47457000D01*
X43673000Y-47457000D01*
X43673000Y-47437000D01*
X43653000Y-47437000D01*
X43653000Y-47183000D01*
X43673000Y-47183000D01*
X43673000Y-47163000D01*
X43927000Y-47163000D01*
X43927000Y-47183000D01*
G36*
X41627000Y-42433000D02*
X41647000Y-42433000D01*
X41647000Y-42687000D01*
X41627000Y-42687000D01*
X41627000Y-42707000D01*
X41373000Y-42707000D01*
X41373000Y-42687000D01*
X41353000Y-42687000D01*
X41353000Y-42433000D01*
X41373000Y-42433000D01*
X41373000Y-42413000D01*
X41627000Y-42413000D01*
X41627000Y-42433000D01*
X41627000Y-42433000D01*
G37*
X41627000Y-42433000D02*
X41647000Y-42433000D01*
X41647000Y-42687000D01*
X41627000Y-42687000D01*
X41627000Y-42707000D01*
X41373000Y-42707000D01*
X41373000Y-42687000D01*
X41353000Y-42687000D01*
X41353000Y-42433000D01*
X41373000Y-42433000D01*
X41373000Y-42413000D01*
X41627000Y-42413000D01*
X41627000Y-42433000D01*
G36*
X50727000Y-40593000D02*
X50747000Y-40593000D01*
X50747000Y-40799989D01*
X50453000Y-40799989D01*
X50453000Y-40593000D01*
X50473000Y-40593000D01*
X50473000Y-40573000D01*
X50727000Y-40573000D01*
X50727000Y-40593000D01*
X50727000Y-40593000D01*
G37*
X50727000Y-40593000D02*
X50747000Y-40593000D01*
X50747000Y-40799989D01*
X50453000Y-40799989D01*
X50453000Y-40593000D01*
X50473000Y-40593000D01*
X50473000Y-40573000D01*
X50727000Y-40573000D01*
X50727000Y-40593000D01*
G36*
X54715000Y-37082440D02*
X55985000Y-37082440D01*
X56040000Y-37072091D01*
X56040000Y-40375198D01*
X55937401Y-40272599D01*
X55848140Y-40212957D01*
X55991476Y-39866890D01*
X55870155Y-39637000D01*
X54677000Y-39637000D01*
X54677000Y-39657000D01*
X54423000Y-39657000D01*
X54423000Y-39637000D01*
X53229845Y-39637000D01*
X53108524Y-39866890D01*
X53184366Y-40050000D01*
X52250000Y-40050000D01*
X51959161Y-40107852D01*
X51938689Y-40121531D01*
X51920194Y-40076878D01*
X51925827Y-40068634D01*
X52047401Y-39987401D01*
X52881692Y-39153110D01*
X53108524Y-39153110D01*
X53229845Y-39383000D01*
X54423000Y-39383000D01*
X54423000Y-38189181D01*
X54677000Y-38189181D01*
X54677000Y-39383000D01*
X55870155Y-39383000D01*
X55991476Y-39153110D01*
X55821645Y-38743076D01*
X55431358Y-38314817D01*
X54906892Y-38068514D01*
X54677000Y-38189181D01*
X54423000Y-38189181D01*
X54371091Y-38161935D01*
X54413327Y-38119698D01*
X54510000Y-37886309D01*
X54510000Y-37645750D01*
X54351250Y-37487000D01*
X53627000Y-37487000D01*
X53627000Y-38236250D01*
X53693767Y-38303017D01*
X53668642Y-38314817D01*
X53278355Y-38743076D01*
X53108524Y-39153110D01*
X52881692Y-39153110D01*
X53037401Y-38997401D01*
X53202148Y-38750840D01*
X53215063Y-38685910D01*
X53260000Y-38460000D01*
X53260000Y-38349250D01*
X53373000Y-38236250D01*
X53373000Y-37487000D01*
X53353000Y-37487000D01*
X53353000Y-37233000D01*
X53373000Y-37233000D01*
X53373000Y-37213000D01*
X53627000Y-37213000D01*
X53627000Y-37233000D01*
X54351250Y-37233000D01*
X54510000Y-37074250D01*
X54510000Y-37040926D01*
X54715000Y-37082440D01*
X54715000Y-37082440D01*
G37*
X54715000Y-37082440D02*
X55985000Y-37082440D01*
X56040000Y-37072091D01*
X56040000Y-40375198D01*
X55937401Y-40272599D01*
X55848140Y-40212957D01*
X55991476Y-39866890D01*
X55870155Y-39637000D01*
X54677000Y-39637000D01*
X54677000Y-39657000D01*
X54423000Y-39657000D01*
X54423000Y-39637000D01*
X53229845Y-39637000D01*
X53108524Y-39866890D01*
X53184366Y-40050000D01*
X52250000Y-40050000D01*
X51959161Y-40107852D01*
X51938689Y-40121531D01*
X51920194Y-40076878D01*
X51925827Y-40068634D01*
X52047401Y-39987401D01*
X52881692Y-39153110D01*
X53108524Y-39153110D01*
X53229845Y-39383000D01*
X54423000Y-39383000D01*
X54423000Y-38189181D01*
X54677000Y-38189181D01*
X54677000Y-39383000D01*
X55870155Y-39383000D01*
X55991476Y-39153110D01*
X55821645Y-38743076D01*
X55431358Y-38314817D01*
X54906892Y-38068514D01*
X54677000Y-38189181D01*
X54423000Y-38189181D01*
X54371091Y-38161935D01*
X54413327Y-38119698D01*
X54510000Y-37886309D01*
X54510000Y-37645750D01*
X54351250Y-37487000D01*
X53627000Y-37487000D01*
X53627000Y-38236250D01*
X53693767Y-38303017D01*
X53668642Y-38314817D01*
X53278355Y-38743076D01*
X53108524Y-39153110D01*
X52881692Y-39153110D01*
X53037401Y-38997401D01*
X53202148Y-38750840D01*
X53215063Y-38685910D01*
X53260000Y-38460000D01*
X53260000Y-38349250D01*
X53373000Y-38236250D01*
X53373000Y-37487000D01*
X53353000Y-37487000D01*
X53353000Y-37233000D01*
X53373000Y-37233000D01*
X53373000Y-37213000D01*
X53627000Y-37213000D01*
X53627000Y-37233000D01*
X54351250Y-37233000D01*
X54510000Y-37074250D01*
X54510000Y-37040926D01*
X54715000Y-37082440D01*
G36*
X53600000Y-31057440D02*
X54400000Y-31057440D01*
X54419053Y-31053855D01*
X54531633Y-31166435D01*
X54502560Y-31310000D01*
X54502560Y-31810000D01*
X54546838Y-32045317D01*
X54685910Y-32261441D01*
X54755711Y-32309134D01*
X54698559Y-32345910D01*
X54553569Y-32558110D01*
X54502560Y-32810000D01*
X54502560Y-33310000D01*
X54546838Y-33545317D01*
X54560548Y-33566622D01*
X54479683Y-33581838D01*
X54263559Y-33720910D01*
X54118569Y-33933110D01*
X54067560Y-34185000D01*
X54067560Y-34851554D01*
X53875000Y-34812560D01*
X53786810Y-34812560D01*
X53821431Y-34761890D01*
X53872440Y-34510000D01*
X53872440Y-33710000D01*
X53828162Y-33474683D01*
X53761671Y-33371354D01*
X53763327Y-33369698D01*
X53860000Y-33136309D01*
X53860000Y-32895750D01*
X53701250Y-32737000D01*
X52977000Y-32737000D01*
X52977000Y-32757000D01*
X52723000Y-32757000D01*
X52723000Y-32737000D01*
X51998750Y-32737000D01*
X51840000Y-32895750D01*
X51840000Y-33136309D01*
X51936673Y-33369698D01*
X51938043Y-33371068D01*
X51878569Y-33458110D01*
X51827560Y-33710000D01*
X51827560Y-34510000D01*
X51858859Y-34676339D01*
X51462599Y-35072599D01*
X51297852Y-35319161D01*
X51240000Y-35610000D01*
X51240000Y-35962560D01*
X49825000Y-35962560D01*
X49589683Y-36006838D01*
X49480297Y-36077226D01*
X49337401Y-35863367D01*
X49020000Y-35545966D01*
X49020000Y-34657440D01*
X50350000Y-34657440D01*
X50585317Y-34613162D01*
X50801441Y-34474090D01*
X50946431Y-34261890D01*
X50997440Y-34010000D01*
X50997440Y-31876712D01*
X51395472Y-32099905D01*
X51521135Y-32130218D01*
X51772998Y-32010741D01*
X51772998Y-32175000D01*
X51840000Y-32175000D01*
X51840000Y-32324250D01*
X51998750Y-32483000D01*
X52723000Y-32483000D01*
X52723000Y-32463000D01*
X52977000Y-32463000D01*
X52977000Y-32483000D01*
X53701250Y-32483000D01*
X53860000Y-32324250D01*
X53860000Y-32083691D01*
X53763327Y-31850302D01*
X53584699Y-31671673D01*
X53351310Y-31575000D01*
X53135750Y-31575000D01*
X53097610Y-31613140D01*
X53352703Y-31289193D01*
X53427745Y-31022558D01*
X53600000Y-31057440D01*
X53600000Y-31057440D01*
G37*
X53600000Y-31057440D02*
X54400000Y-31057440D01*
X54419053Y-31053855D01*
X54531633Y-31166435D01*
X54502560Y-31310000D01*
X54502560Y-31810000D01*
X54546838Y-32045317D01*
X54685910Y-32261441D01*
X54755711Y-32309134D01*
X54698559Y-32345910D01*
X54553569Y-32558110D01*
X54502560Y-32810000D01*
X54502560Y-33310000D01*
X54546838Y-33545317D01*
X54560548Y-33566622D01*
X54479683Y-33581838D01*
X54263559Y-33720910D01*
X54118569Y-33933110D01*
X54067560Y-34185000D01*
X54067560Y-34851554D01*
X53875000Y-34812560D01*
X53786810Y-34812560D01*
X53821431Y-34761890D01*
X53872440Y-34510000D01*
X53872440Y-33710000D01*
X53828162Y-33474683D01*
X53761671Y-33371354D01*
X53763327Y-33369698D01*
X53860000Y-33136309D01*
X53860000Y-32895750D01*
X53701250Y-32737000D01*
X52977000Y-32737000D01*
X52977000Y-32757000D01*
X52723000Y-32757000D01*
X52723000Y-32737000D01*
X51998750Y-32737000D01*
X51840000Y-32895750D01*
X51840000Y-33136309D01*
X51936673Y-33369698D01*
X51938043Y-33371068D01*
X51878569Y-33458110D01*
X51827560Y-33710000D01*
X51827560Y-34510000D01*
X51858859Y-34676339D01*
X51462599Y-35072599D01*
X51297852Y-35319161D01*
X51240000Y-35610000D01*
X51240000Y-35962560D01*
X49825000Y-35962560D01*
X49589683Y-36006838D01*
X49480297Y-36077226D01*
X49337401Y-35863367D01*
X49020000Y-35545966D01*
X49020000Y-34657440D01*
X50350000Y-34657440D01*
X50585317Y-34613162D01*
X50801441Y-34474090D01*
X50946431Y-34261890D01*
X50997440Y-34010000D01*
X50997440Y-31876712D01*
X51395472Y-32099905D01*
X51521135Y-32130218D01*
X51772998Y-32010741D01*
X51772998Y-32175000D01*
X51840000Y-32175000D01*
X51840000Y-32324250D01*
X51998750Y-32483000D01*
X52723000Y-32483000D01*
X52723000Y-32463000D01*
X52977000Y-32463000D01*
X52977000Y-32483000D01*
X53701250Y-32483000D01*
X53860000Y-32324250D01*
X53860000Y-32083691D01*
X53763327Y-31850302D01*
X53584699Y-31671673D01*
X53351310Y-31575000D01*
X53135750Y-31575000D01*
X53097610Y-31613140D01*
X53352703Y-31289193D01*
X53427745Y-31022558D01*
X53600000Y-31057440D01*
G36*
X45198110Y-33656431D02*
X45232258Y-33663346D01*
X45202560Y-33810000D01*
X45202560Y-34710000D01*
X45246838Y-34945317D01*
X45385910Y-35161441D01*
X45471613Y-35219999D01*
X45099799Y-35219999D01*
X44507588Y-34627788D01*
X44585317Y-34613162D01*
X44801441Y-34474090D01*
X44946431Y-34261890D01*
X44997440Y-34010000D01*
X44997440Y-33519319D01*
X45198110Y-33656431D01*
X45198110Y-33656431D01*
G37*
X45198110Y-33656431D02*
X45232258Y-33663346D01*
X45202560Y-33810000D01*
X45202560Y-34710000D01*
X45246838Y-34945317D01*
X45385910Y-35161441D01*
X45471613Y-35219999D01*
X45099799Y-35219999D01*
X44507588Y-34627788D01*
X44585317Y-34613162D01*
X44801441Y-34474090D01*
X44946431Y-34261890D01*
X44997440Y-34010000D01*
X44997440Y-33519319D01*
X45198110Y-33656431D01*
G36*
X45398696Y-27896908D02*
X45275000Y-28518769D01*
X45275000Y-30601231D01*
X45398696Y-31223092D01*
X45658930Y-31612560D01*
X45450000Y-31612560D01*
X45214683Y-31656838D01*
X44998559Y-31795910D01*
X44997440Y-31797548D01*
X44997440Y-31310000D01*
X44953162Y-31074683D01*
X44814090Y-30858559D01*
X44601890Y-30713569D01*
X44350000Y-30662560D01*
X43537440Y-30662560D01*
X43537440Y-29347362D01*
X45319823Y-27564979D01*
X45620483Y-27564979D01*
X45398696Y-27896908D01*
X45398696Y-27896908D01*
G37*
X45398696Y-27896908D02*
X45275000Y-28518769D01*
X45275000Y-30601231D01*
X45398696Y-31223092D01*
X45658930Y-31612560D01*
X45450000Y-31612560D01*
X45214683Y-31656838D01*
X44998559Y-31795910D01*
X44997440Y-31797548D01*
X44997440Y-31310000D01*
X44953162Y-31074683D01*
X44814090Y-30858559D01*
X44601890Y-30713569D01*
X44350000Y-30662560D01*
X43537440Y-30662560D01*
X43537440Y-29347362D01*
X45319823Y-27564979D01*
X45620483Y-27564979D01*
X45398696Y-27896908D01*
G36*
X49577000Y-28633000D02*
X49597000Y-28633000D01*
X49597000Y-28887000D01*
X49577000Y-28887000D01*
X49577000Y-30486250D01*
X49735750Y-30645000D01*
X50275000Y-30645000D01*
X50275000Y-30677000D01*
X50327224Y-30862560D01*
X48550000Y-30862560D01*
X48470025Y-30877608D01*
X48516294Y-30645000D01*
X49164250Y-30645000D01*
X49323000Y-30486250D01*
X49323000Y-28887000D01*
X49303000Y-28887000D01*
X49303000Y-28633000D01*
X49323000Y-28633000D01*
X49323000Y-28613000D01*
X49577000Y-28613000D01*
X49577000Y-28633000D01*
X49577000Y-28633000D01*
G37*
X49577000Y-28633000D02*
X49597000Y-28633000D01*
X49597000Y-28887000D01*
X49577000Y-28887000D01*
X49577000Y-30486250D01*
X49735750Y-30645000D01*
X50275000Y-30645000D01*
X50275000Y-30677000D01*
X50327224Y-30862560D01*
X48550000Y-30862560D01*
X48470025Y-30877608D01*
X48516294Y-30645000D01*
X49164250Y-30645000D01*
X49323000Y-30486250D01*
X49323000Y-28887000D01*
X49303000Y-28887000D01*
X49303000Y-28633000D01*
X49323000Y-28633000D01*
X49323000Y-28613000D01*
X49577000Y-28613000D01*
X49577000Y-28633000D01*
G36*
X52027000Y-29433000D02*
X52047000Y-29433000D01*
X52047000Y-29687000D01*
X52027000Y-29687000D01*
X52027000Y-29707000D01*
X51773000Y-29707000D01*
X51773000Y-29687000D01*
X51753000Y-29687000D01*
X51753000Y-29433000D01*
X51773000Y-29433000D01*
X51773000Y-29413000D01*
X52027000Y-29413000D01*
X52027000Y-29433000D01*
X52027000Y-29433000D01*
G37*
X52027000Y-29433000D02*
X52047000Y-29433000D01*
X52047000Y-29687000D01*
X52027000Y-29687000D01*
X52027000Y-29707000D01*
X51773000Y-29707000D01*
X51773000Y-29687000D01*
X51753000Y-29687000D01*
X51753000Y-29433000D01*
X51773000Y-29433000D01*
X51773000Y-29413000D01*
X52027000Y-29413000D01*
X52027000Y-29433000D01*
M02*
