G04 #@! TF.FileFunction,Legend,Bot*
%FSLAX46Y46*%
G04 Gerber Fmt 4.6, Leading zero omitted, Abs format (unit mm)*
G04 Created by KiCad (PCBNEW 4.0.4-stable) date 10/18/17 21:30:34*
%MOMM*%
%LPD*%
G01*
G04 APERTURE LIST*
%ADD10C,0.100000*%
%ADD11C,0.300000*%
%ADD12C,0.175000*%
%ADD13C,0.250000*%
%ADD14C,0.200000*%
%ADD15C,0.120000*%
%ADD16C,0.150000*%
G04 APERTURE END LIST*
D10*
D11*
X51800000Y-37567143D02*
X51728571Y-37424286D01*
X51728571Y-37210000D01*
X51800000Y-36995715D01*
X51942857Y-36852857D01*
X52085714Y-36781429D01*
X52371429Y-36710000D01*
X52585714Y-36710000D01*
X52871429Y-36781429D01*
X53014286Y-36852857D01*
X53157143Y-36995715D01*
X53228571Y-37210000D01*
X53228571Y-37352857D01*
X53157143Y-37567143D01*
X53085714Y-37638572D01*
X52585714Y-37638572D01*
X52585714Y-37352857D01*
X53228571Y-38281429D02*
X51728571Y-38281429D01*
X53228571Y-39138572D01*
X51728571Y-39138572D01*
X53228571Y-39852858D02*
X51728571Y-39852858D01*
X51728571Y-40210001D01*
X51800000Y-40424286D01*
X51942857Y-40567144D01*
X52085714Y-40638572D01*
X52371429Y-40710001D01*
X52585714Y-40710001D01*
X52871429Y-40638572D01*
X53014286Y-40567144D01*
X53157143Y-40424286D01*
X53228571Y-40210001D01*
X53228571Y-39852858D01*
D12*
X55850000Y-39026667D02*
X55816667Y-38960001D01*
X55816667Y-38860001D01*
X55850000Y-38760001D01*
X55916667Y-38693334D01*
X55983333Y-38660001D01*
X56116667Y-38626667D01*
X56216667Y-38626667D01*
X56350000Y-38660001D01*
X56416667Y-38693334D01*
X56483333Y-38760001D01*
X56516667Y-38860001D01*
X56516667Y-38926667D01*
X56483333Y-39026667D01*
X56450000Y-39060001D01*
X56216667Y-39060001D01*
X56216667Y-38926667D01*
X56516667Y-39360001D02*
X55816667Y-39360001D01*
X56516667Y-39760001D01*
X55816667Y-39760001D01*
X56516667Y-40093334D02*
X55816667Y-40093334D01*
X55816667Y-40260000D01*
X55850000Y-40360000D01*
X55916667Y-40426667D01*
X55983333Y-40460000D01*
X56116667Y-40493334D01*
X56216667Y-40493334D01*
X56350000Y-40460000D01*
X56416667Y-40426667D01*
X56483333Y-40360000D01*
X56516667Y-40260000D01*
X56516667Y-40093334D01*
X55916667Y-43976667D02*
X55916667Y-44376667D01*
X56616667Y-44176667D02*
X55916667Y-44176667D01*
X55916667Y-44543333D02*
X56616667Y-45010000D01*
X55916667Y-45010000D02*
X56616667Y-44543333D01*
X56516667Y-41893334D02*
X56183333Y-41660000D01*
X56516667Y-41493334D02*
X55816667Y-41493334D01*
X55816667Y-41760000D01*
X55850000Y-41826667D01*
X55883333Y-41860000D01*
X55950000Y-41893334D01*
X56050000Y-41893334D01*
X56116667Y-41860000D01*
X56150000Y-41826667D01*
X56183333Y-41760000D01*
X56183333Y-41493334D01*
X55816667Y-42126667D02*
X56516667Y-42593334D01*
X55816667Y-42593334D02*
X56516667Y-42126667D01*
D13*
X47028572Y-46352857D02*
X46980953Y-46305238D01*
X46838096Y-46257619D01*
X46742858Y-46257619D01*
X46600000Y-46305238D01*
X46504762Y-46400476D01*
X46457143Y-46495714D01*
X46409524Y-46686190D01*
X46409524Y-46829048D01*
X46457143Y-47019524D01*
X46504762Y-47114762D01*
X46600000Y-47210000D01*
X46742858Y-47257619D01*
X46838096Y-47257619D01*
X46980953Y-47210000D01*
X47028572Y-47162381D01*
X47409524Y-46543333D02*
X47885715Y-46543333D01*
X47314286Y-46257619D02*
X47647619Y-47257619D01*
X47980953Y-46257619D01*
X48314286Y-46257619D02*
X48314286Y-47257619D01*
X48885715Y-46257619D01*
X48885715Y-47257619D01*
X50123810Y-46257619D02*
X50123810Y-47257619D01*
X50361905Y-47257619D01*
X50504763Y-47210000D01*
X50600001Y-47114762D01*
X50647620Y-47019524D01*
X50695239Y-46829048D01*
X50695239Y-46686190D01*
X50647620Y-46495714D01*
X50600001Y-46400476D01*
X50504763Y-46305238D01*
X50361905Y-46257619D01*
X50123810Y-46257619D01*
X51123810Y-46781429D02*
X51457144Y-46781429D01*
X51600001Y-46257619D02*
X51123810Y-46257619D01*
X51123810Y-47257619D01*
X51600001Y-47257619D01*
X51885715Y-47257619D02*
X52219048Y-46257619D01*
X52552382Y-47257619D01*
X52885715Y-46257619D02*
X52885715Y-47257619D01*
X53933334Y-46352857D02*
X53885715Y-46305238D01*
X53742858Y-46257619D01*
X53647620Y-46257619D01*
X53504762Y-46305238D01*
X53409524Y-46400476D01*
X53361905Y-46495714D01*
X53314286Y-46686190D01*
X53314286Y-46829048D01*
X53361905Y-47019524D01*
X53409524Y-47114762D01*
X53504762Y-47210000D01*
X53647620Y-47257619D01*
X53742858Y-47257619D01*
X53885715Y-47210000D01*
X53933334Y-47162381D01*
X54361905Y-46781429D02*
X54695239Y-46781429D01*
X54838096Y-46257619D02*
X54361905Y-46257619D01*
X54361905Y-47257619D01*
X54838096Y-47257619D01*
X55219048Y-46305238D02*
X55361905Y-46257619D01*
X55600001Y-46257619D01*
X55695239Y-46305238D01*
X55742858Y-46352857D01*
X55790477Y-46448095D01*
X55790477Y-46543333D01*
X55742858Y-46638571D01*
X55695239Y-46686190D01*
X55600001Y-46733810D01*
X55409524Y-46781429D01*
X55314286Y-46829048D01*
X55266667Y-46876667D01*
X55219048Y-46971905D01*
X55219048Y-47067143D01*
X55266667Y-47162381D01*
X55314286Y-47210000D01*
X55409524Y-47257619D01*
X55647620Y-47257619D01*
X55790477Y-47210000D01*
X47064286Y-44757619D02*
X46588095Y-44757619D01*
X46588095Y-45757619D01*
X47397619Y-45757619D02*
X47397619Y-44948095D01*
X47445238Y-44852857D01*
X47492857Y-44805238D01*
X47588095Y-44757619D01*
X47778572Y-44757619D01*
X47873810Y-44805238D01*
X47921429Y-44852857D01*
X47969048Y-44948095D01*
X47969048Y-45757619D01*
X49016667Y-44852857D02*
X48969048Y-44805238D01*
X48826191Y-44757619D01*
X48730953Y-44757619D01*
X48588095Y-44805238D01*
X48492857Y-44900476D01*
X48445238Y-44995714D01*
X48397619Y-45186190D01*
X48397619Y-45329048D01*
X48445238Y-45519524D01*
X48492857Y-45614762D01*
X48588095Y-45710000D01*
X48730953Y-45757619D01*
X48826191Y-45757619D01*
X48969048Y-45710000D01*
X49016667Y-45662381D01*
X50397619Y-45757619D02*
X50492858Y-45757619D01*
X50588096Y-45710000D01*
X50635715Y-45662381D01*
X50683334Y-45567143D01*
X50730953Y-45376667D01*
X50730953Y-45138571D01*
X50683334Y-44948095D01*
X50635715Y-44852857D01*
X50588096Y-44805238D01*
X50492858Y-44757619D01*
X50397619Y-44757619D01*
X50302381Y-44805238D01*
X50254762Y-44852857D01*
X50207143Y-44948095D01*
X50159524Y-45138571D01*
X50159524Y-45376667D01*
X50207143Y-45567143D01*
X50254762Y-45662381D01*
X50302381Y-45710000D01*
X50397619Y-45757619D01*
X51159524Y-44852857D02*
X51207143Y-44805238D01*
X51159524Y-44757619D01*
X51111905Y-44805238D01*
X51159524Y-44852857D01*
X51159524Y-44757619D01*
X52159524Y-44757619D02*
X51588095Y-44757619D01*
X51873809Y-44757619D02*
X51873809Y-45757619D01*
X51778571Y-45614762D01*
X51683333Y-45519524D01*
X51588095Y-45471905D01*
D14*
X52600000Y-47710000D02*
X55850000Y-47710000D01*
X45800000Y-47710000D02*
X52600000Y-47710000D01*
D11*
X44142858Y-47602857D02*
X44142858Y-45174286D01*
X44285715Y-44888571D01*
X44428572Y-44745714D01*
X44714286Y-44602857D01*
X45285715Y-44602857D01*
X45571429Y-44745714D01*
X45714286Y-44888571D01*
X45857143Y-45174286D01*
X45857143Y-47602857D01*
X44142857Y-38102858D02*
X44214286Y-38317144D01*
X44285714Y-38388572D01*
X44428571Y-38460001D01*
X44642857Y-38460001D01*
X44785714Y-38388572D01*
X44857143Y-38317144D01*
X44928571Y-38174286D01*
X44928571Y-37602858D01*
X43428571Y-37602858D01*
X43428571Y-38102858D01*
X43500000Y-38245715D01*
X43571429Y-38317144D01*
X43714286Y-38388572D01*
X43857143Y-38388572D01*
X44000000Y-38317144D01*
X44071429Y-38245715D01*
X44142857Y-38102858D01*
X44142857Y-37602858D01*
X44500000Y-39031429D02*
X44500000Y-39745715D01*
X44928571Y-38888572D02*
X43428571Y-39388572D01*
X44928571Y-39888572D01*
X43428571Y-40174286D02*
X43428571Y-41031429D01*
X44928571Y-40602858D02*
X43428571Y-40602858D01*
X49328571Y-38431429D02*
X49328571Y-37717143D01*
X47828571Y-37717143D01*
X49328571Y-38931429D02*
X47828571Y-38931429D01*
X49328571Y-39645715D02*
X47828571Y-39645715D01*
X49328571Y-40502858D01*
X47828571Y-40502858D01*
D15*
X40170000Y-36150000D02*
X42830000Y-36150000D01*
X40170000Y-46370000D02*
X40170000Y-36150000D01*
X42830000Y-46370000D02*
X42830000Y-36150000D01*
X40170000Y-46370000D02*
X42830000Y-46370000D01*
X40170000Y-47640000D02*
X40170000Y-48970000D01*
X40170000Y-48970000D02*
X41500000Y-48970000D01*
D16*
X40414140Y-48314880D02*
X40414140Y-62411880D01*
X55400140Y-62411880D02*
X55400140Y-48314880D01*
X40414140Y-48314880D02*
X55400140Y-48314880D01*
X40414140Y-62411880D02*
X55400140Y-62411880D01*
D10*
X42026189Y-35786190D02*
X42026189Y-35286190D01*
X41502380Y-35738571D02*
X41526190Y-35762381D01*
X41597618Y-35786190D01*
X41645237Y-35786190D01*
X41716666Y-35762381D01*
X41764285Y-35714762D01*
X41788094Y-35667143D01*
X41811904Y-35571905D01*
X41811904Y-35500476D01*
X41788094Y-35405238D01*
X41764285Y-35357619D01*
X41716666Y-35310000D01*
X41645237Y-35286190D01*
X41597618Y-35286190D01*
X41526190Y-35310000D01*
X41502380Y-35333810D01*
X41311904Y-35762381D02*
X41240475Y-35786190D01*
X41121428Y-35786190D01*
X41073809Y-35762381D01*
X41049999Y-35738571D01*
X41026190Y-35690952D01*
X41026190Y-35643333D01*
X41049999Y-35595714D01*
X41073809Y-35571905D01*
X41121428Y-35548095D01*
X41216666Y-35524286D01*
X41264285Y-35500476D01*
X41288094Y-35476667D01*
X41311904Y-35429048D01*
X41311904Y-35381429D01*
X41288094Y-35333810D01*
X41264285Y-35310000D01*
X41216666Y-35286190D01*
X41097618Y-35286190D01*
X41026190Y-35310000D01*
X40550000Y-35786190D02*
X40835714Y-35786190D01*
X40692857Y-35786190D02*
X40692857Y-35286190D01*
X40740476Y-35357619D01*
X40788095Y-35405238D01*
X40835714Y-35429048D01*
X53468190Y-49090953D02*
X52968190Y-49090953D01*
X52968190Y-49281429D01*
X52992000Y-49329048D01*
X53015810Y-49352857D01*
X53063429Y-49376667D01*
X53134857Y-49376667D01*
X53182476Y-49352857D01*
X53206286Y-49329048D01*
X53230095Y-49281429D01*
X53230095Y-49090953D01*
X53468190Y-49852857D02*
X53468190Y-49567143D01*
X53468190Y-49710000D02*
X52968190Y-49710000D01*
X53039619Y-49662381D01*
X53087238Y-49614762D01*
X53111048Y-49567143D01*
M02*
